<?xml version="1.0" encoding="UTF-8" standalone="no"?><svg xmlns="http://www.w3.org/2000/svg" xmlns:xlink="http://www.w3.org/1999/xlink" fill="#000000" height="49.7" preserveAspectRatio="xMidYMid meet" version="1" viewBox="0.0 -0.1 455.0 49.7" width="455" zoomAndPan="magnify"><g id="change1_1"><path d="M437.2686,34.073c-0.0061,0.0094-0.0138,0.0184-0.02,0.0277c-0.005,0.002-0.01,0.0038-0.0151,0.0058 L437.2686,34.073z M244.7095,1.2972c-0.0166,0.0458-0.031,0.0928-0.0469,0.1392c0.0345-0.0283,0.0677-0.0579,0.1021-0.0865 c0-0.0001-0.0138-0.0132-0.0276-0.0264l0.0276,0.0263c0.0695-0.0189,0.139-0.0269,0.2085-0.0449 C244.8816,1.3059,244.7908,1.3062,244.7095,1.2972z M454.6255,19.3496c-0.6938,1.3298-1.2781,2.7527-1.9741,4.0163 c-0.9528,1.7294-1.9985,4.2577-4.988,3.2803c-1.8115,1.3949-3.647-0.9327-5.4807,0.0225c-0.1699,0.0884-0.626-0.2907-0.7434-0.1964 c-1.4541,1.1678-3.2505,0.5516-4.8301,0.9922c-0.4506,0.1257-1.1331,0.4438-1.1868,0.762 c-0.1238,0.7325,0.3386,1.1011,1.1837,1.0145c0.2958-0.0303,0.639,0.4031,0.9606,0.6249c-0.2742,0.2652-0.5177,0.7089-0.828,0.7618 c-0.8857,0.1511-1.3195,0.3613-0.9447,1.4116c0.0935,0.262-0.5552,1.0397-0.9976,1.1938c-1.2544,0.4373-2.5778,0.678-3.876,0.9879 c-0.302,0.0721-0.6118,0.1115-0.9182,0.1658c0.2845,0.299,0.6492,0.9,0.8411,0.8491c1.5728-0.4168,3.2793,0.3453,4.7781-0.561 l-0.0056-0.0178c0.051-0.0145,0.1019-0.0291,0.1528-0.0437c-0.0476,0.0199-0.0953,0.0398-0.1429,0.0597 c0.3951,0.6233,0.7679,1.7199,1.2535,0.0264c0.0623-0.217,0.2378-0.4016,0.3694-0.5987c0.2258-0.0866,0.4517-0.1733,0.6775-0.2599 c0.3533,1.7156,1.6804,1.6071,2.9141,1.4531c1.3799-0.1723,2.9167,0.5867,4.129-0.645c1.205,0.827,2.4249,0.4956,3.7667,0.3458 c0.9255-0.1033,1.6206,1.1859,1.3628,2.2531c-0.2888,1.1956,0.1602,1.5204,1.1864,1.9269c1.4086,0.5579,1.4542,1.2008,0.1549,2.0331 c-1.6018,1.026-3.24,1.8095-5.3652,1.6191c-2.1174-0.1897-4.3279,0.1299-6.428,0.563c-0.7356,0.1517-1.6799,1.2379-1.804,2.0133 c-0.2838,1.7738-1.7744,2.0293-2.7761,2.0389c-2.1448,0.0206-4.2686,0.1886-6.4023,0.3163 c-2.5795,0.1543-5.1635,0.2656-7.7471,0.3087c-1.1902,0.02-2.3839-0.1682-3.5764-0.2587c-0.9001-0.0683-1.8235-0.287-2.696-0.1604 c-1.3215,0.1917-2.6023,0.0668-3.9109-0.0009c-0.8557-0.0443-1.9575-0.0016-2.5464,0.4872 c-1.0569,0.8775-2.2961,0.5367-3.0034,0.2142c-2.6165-1.1934-5.3077-0.5326-7.9412-0.6788c-2.7006-0.15-5.4045,0.46-8.1499,0.0066 c-1.0759-0.1777-2.3335,0.1937-3.3906,0.6123c-0.9976,0.395-1.8878,0.6019-2.7849,0.0058 c-2.0659-1.3725-4.0585-1.1187-6.0898,0.0784c-0.2996,0.1765-1.0999,0.1403-1.1359,0.0295 c-0.3788-1.1653-1.3365-0.758-2.0616-0.7756c-2.8221-0.0687-5.6545,0.0642-8.4673-0.1199c-3.281-0.2148-6.5427,0.0354-9.806,0.1614 c-1.0917,0.0422-2.12-0.1775-3.15-0.1957c-3.606-0.0641-7.2166,0.2067-10.8265,0.2545c-2.2181,0.0294-4.4381-0.1443-6.6581-0.1746 c-2.1968-0.03-4.3945-0.0106-6.5913,0.0237c-0.5378,0.0083-1.0967,0.0898-1.6042,0.261c-0.6746,0.2275-1.5328,1.7472-1.7448-0.3545 c-0.0094-0.0931-0.4617-0.209-0.704-0.2011c-3.3325,0.1086-6.6643,0.2336-9.9961,0.3618c-3.0134,0.116-5.9944,0.1172-9.022-0.277 c-2.6504-0.3452-5.4023,0.1268-8.1106,0.1783c-2.963,0.0564-5.9369-0.0992-8.8883,0.1003 c-3.2931,0.2227-6.5558-0.2881-9.8511-0.0846c-3.4175,0.2109-6.8582,0.0457-10.2887,0.0467 c-3.4449,0.001-6.8916,0.0699-10.3345-0.0139c-2.9043-0.0708-5.8027-0.3681-8.7072-0.4615 c-1.1526-0.0371-2.3121,0.2672-3.4722,0.3077c-2.5861,0.0903-5.1744,0.1559-7.7618,0.1532 c-5.6318-0.0057-11.2731-0.2576-16.8904,0.012c-1.9688,0.0945-4.1514-0.7596-6.0081,0.6443l0.0105,0.0168 c-0.0531,0.0135-0.1061,0.0271-0.1592,0.0407c0.0476-0.0184,0.0952-0.0368,0.1428-0.0553c-0.2573-0.2062-0.5151-0.5703-0.772-0.5696 c-4.9513,0.0139-9.9028,0.0504-14.8535,0.1356c-1.6372,0.0281-3.272,0.2734-4.9072,0.2662 c-0.3901-0.0017-0.741-0.6833-1.1793-0.9269c-0.2777-0.1542-0.6842-0.0767-1.0328-0.1031 c-0.2107-0.3192-0.4214-0.6383-0.6322-0.9575c-0.2042,0.2025-0.4086,0.4051-0.6128,0.6076c0.318,0.2111,0.6361,0.4221,0.9542,0.6331 c-1.5991,0.3855-3.1907,0.5621-4.7502-0.1545c0.0029,0.0089,0.0071,0.0186,0.0098,0.0273 c-1.1602,0.1335-2.3242,0.2402-3.4795,0.4085c-1.1157,0.1625-2.1082,0.321-1.389-1.3885c0.1025-0.2438-0.2836-0.693-0.4435-1.0471 c-0.3829,0.1934-1.1183,0.4722-1.0952,0.5671c0.2839,1.1711-0.7842,1.265-1.3362,1.6914c-0.4186,0.3233-1.0332,0.6129-1.5322,0.572 c-1.6665-0.1364-2.1287-1.2653-1.0311-2.5685c0.5629-0.6685,1.4615-1.0504,2.0441-1.7076c0.36-0.406,0.4572-1.0782,0.5549-1.651 c0.0167-0.0976-0.548-0.3927-0.863-0.4279c-0.6174-0.069-1.1067-0.1027-1.2156,0.8877c-0.0757,0.688-0.8861,1.8417-1.3721,1.8436 c-2.1218,0.0085-2.3054,0.764-1.3038,2.3651c0.0848,0.1357-0.0616,0.6141-0.1439,0.6256c-0.7964,0.1118-1.601,0.1858-2.4053,0.2146 c-0.8395,0.0302-1.4061-0.011-1.5562-1.2322c-0.1375-1.1188-0.9529-1.0621-1.7473,0.0192c-0.303,0.4125-0.6182,1.0496-1.0092,1.1177 c-0.9498,0.1654-1.9479,0.0668-2.9249,0.0324c-0.0505-0.0018-0.1296-0.399-0.1223-0.6096c0.021-0.5931,0.0801-1.1849,0.124-1.7773 c0.0845-0.1806,0.1689-0.3613,0.2533-0.5419c-0.1805,0.0859-0.3611,0.1718-0.5416,0.2577 c-0.3936,0.1755-0.9972,0.2512-1.1377,0.5469c-0.3091,0.6504-0.2061,1.8878-0.5909,2.032 c-0.8761,0.3281-1.9449,0.1504-2.9355,0.1624c-0.9615,0.0116-1.9667,0.0552-1.1859-1.4247 c0.0583-0.1106-0.1926-0.5206-0.3723-0.5829c-0.1873-0.065-0.533,0.0546-0.6849,0.2129c-0.3634,0.3787-0.6534,0.8276-0.9731,1.2482 c-0.214-0.4975-0.4225-0.9977-0.6605-1.4834c-0.0104-0.021-0.2942,0.0921-0.4506,0.1427c0.1948,0.494,0.3842,0.9901,0.5909,1.4789 c0.0271,0.064,0.1433,0.0901,0.2183,0.1339c-1.1543,0.087-2.3381,0.3654-3.4531,0.1949c-0.7625-0.1166-2.1273-0.0101-1.9679-1.5583 c0.0126-0.1214-0.3632-0.4148-0.5171-0.3884c-0.1969,0.0338-0.4384,0.2827-0.5073,0.4899 c-0.1447,0.4343-0.1511,1.2837-0.2804,1.2965c-1.189,0.1177-2.3953,0.137-3.5874,0.0543c-0.1494-0.0103-0.2053-0.7951-0.3757-1.1904 c-0.3989-0.9247-1.3396-1.0853-1.7133-0.1797c-0.8022,1.9441-2.1666,1.9775-3.856,1.5787 c-1.1405-0.2692-1.6031-1.0726-0.7407-1.7795c0.8995-0.7373,0.728-0.7519-0.1886-1.0129c-0.9133-0.2602-1.7805-0.6826-2.668-1.0338 c0.1521-0.4645,0.4413-0.933,0.4272-1.3925c-0.0283-0.9375-0.583-0.4911-1.0105-0.2745c-0.1807-0.0844-0.3613-0.1688-0.542-0.2532 c0.0859,0.1805,0.1719,0.3611,0.2578,0.5416c-0.7167,0.8423-0.0742,1.2333,0.542,1.633c0.3342,0.2823,0.8228,0.5013,0.9702,0.8604 c0.2949,0.7179,0.4033,1.5126,0.5886,2.2756c-0.7585,0.0844-1.5164,0.2314-2.2758,0.2399 c-1.4755,0.0163-2.9523-0.0843-4.4277-0.0677c-6.0277,0.0679-12.0585,0.0671-18.0817,0.2758 c-4.842,0.1678-9.677-0.228-14.5157,0.0156c-3.1465,0.1584-6.2976,0.3474-9.4454,0.3276c-4.2815-0.027-8.5798-0.5449-12.8381-0.2949 c-5.0796,0.2982-10.152-0.7215-15.2245,0.1711c-1.1913,0.2097-2.4858-0.2026-3.7358-0.2827 c-2.4264-0.1554-4.8549-0.2819-7.2828-0.4105c-0.3542-0.0188-0.9287-0.1197-1.0342,0.0481c-1.197,1.905-2.511,0.7062-3.8062,0.2104 c-0.3286-0.1258-0.6992-0.3554-1.0043-0.2966c-3.3877,0.6521-6.8199-0.5287-10.1232,0.0751 c-2.0303,0.3711-3.8149-0.6996-5.7616-0.2336c-0.3488,0.0834-1.1232-0.5897-1.3167-1.0687 c-0.5944-1.4717-1.6821-1.6422-3.0466-1.5841c-1.4177,0.0602-2.8884,0.2557-3.9684-1.1408 c-0.4561-0.5898-0.7295-0.997-0.1572-1.5982c0.7118-0.748,0.7424-2.058,2.0413-2.3593c0.2797-0.0648,0.4407-0.6412,0.6562-0.982 c-0.2908-0.1765-0.5615-0.4243-0.877-0.5132c-0.5159-0.1455-1.0704-0.1513-1.589-0.2896c-0.2318-0.0618-0.6112-0.4146-0.5936-0.4448 c0.9639-1.6691-1.3927-2.0564-1.322-3.4597c0.0354-0.7025,0.127-1.6667,0.8218-2.1295c0.2764-0.1841,0.4349-0.5452,0.6472-0.8256 c-0.2623-0.1789-0.5085-0.3896-0.7898-0.5311c-1.0713-0.5388-1.8872,0.2377-2.8003,0.5532 c-0.6714,0.2319-1.5156,0.7137-2.0317,0.4941c-1.1884-0.5058-2.2354-1.3549-3.301-2.1187c-0.095-0.0681,0.0059-0.5968,0.162-0.7984 c1.2972-1.6754,2.3939-2.0701,4.7366-1.7112c0.9303,0.1425,1.6285,0.2996,1.264-1.1489c-0.166-0.66,0.3057-1.4856,0.5063-2.2312 c0.1704-0.6331,0.3002-1.1187-0.6421-0.5814c-0.575,0.3279-1.1331,0.3615-1.5742-0.3809c-0.625-1.0521-1.6805-1.3433-2.8337-1.1929 c-1.4697,0.1916-2.9652-0.8113-4.4331,0.1229c-0.1456,0.0927-0.7319-0.1608-0.8152-0.3715 c-0.6216-1.5734-1.8389-2.6714-2.9443-3.8623c0.0229-0.196,0.0461-0.3918,0.0693-0.5876c-0.134,0.0876-0.2681,0.1752-0.4021,0.2628 c-0.4036-0.1212-1.1411-0.2041-1.16-0.3695c-0.2385-2.0793,1.2574-3.5081,3.3031-3.3008c0.4069,0.0413,1.0928,0.0151,1.2122-0.2109 c1.1057-2.0947,2.9443-0.6882,4.4098-0.9753c0.3192-0.0626,0.7545,0.3048,1.0282,0.1978c2.3191-0.907,4.6218-1.8588,6.9016-2.8605 c0.2234-0.0981,0.3853-0.6329,0.3604-0.9479c-0.1116-1.4041,0.649-1.7335,1.8359-1.6113c1.6814,0.1733,3.3544-0.688,5.0449-0.0396 c0.1483,0.0569,0.3573-0.0226,0.5328-0.0621c1.1361-0.2556,1.2438-0.7675,0.3695-1.7256c-0.1608-0.1763-0.3125-0.3608-0.4685-0.5416 c0.2144-0.1126,0.4282-0.3226,0.6428-0.3233c3.7104-0.0123,7.4221,0.0542,11.1317-0.0034 c5.4832-0.0853,10.9648-0.2615,16.4475-0.3824c1.1285-0.0249,2.2587,0.0299,3.3881,0.0363 c6.3323,0.0359,12.6648,0.0593,18.9971,0.1044c6.8868,0.049,13.7734,0.1384,20.6605,0.1708 c7.4989,0.0353,14.9994,0.123,22.4966,0.0104c9.33-0.1402,18.6571,0.0693,27.9855,0.0314 c8.761-0.0356,17.5242,0.0795,26.2827-0.0802c5.9902-0.1093,11.9725,0.1313,17.9595,0.0811 c5.9924-0.0504,11.9863,0.0453,17.9784-0.0266c3.3541-0.0403,6.7045-0.3547,10.059-0.4244 c2.2871-0.0476,4.5781,0.1447,6.8682,0.1768c6.6736,0.0936,13.3475,0.1598,20.0214,0.2392c0.912,0.0109,1.89,0.1356,2.245-1.0141 c0.0969-0.3143,0.1042-0.7674-0.0612-1.0127c-0.1108-0.1643-0.6115-0.1415-0.9149-0.0835 c-0.5154,0.0984-1.0105,0.2997-1.5186,0.4419c-1.2368,0.3459-1.2197,0.3251-2.0754-0.5792 c-0.099-0.1046-0.3135-0.0998-0.5251-0.0976c2.1553-0.556,4.3175-0.6482,6.5298-0.2404c1.0536,0.1942,0.5559,0.4383,0.2654,0.9559 c-0.7313,1.3026-0.5935,1.6387,0.7798,1.6252c5.9773-0.0588,11.9547-0.166,17.9297-0.3383c0.708-0.0204,1.8684,0.9227,2.178-0.6473 c0.0029-0.0138,0.3467-0.0168,0.3674,0.0377c0.7028,1.8365,2.1378,0.5986,3.2303,0.7942c1.0077,0.1804,1.9662,0.3173,2.6866-0.6383 c0.4875,1.315,1.6362,0.7773,2.4929,0.7791c0.845,0.0018,1.825-0.1452,2.5037-0.5936c0.927-0.6125,0.7864,1.0219,1.9451,0.5079 c3.082-1.367,6.3623-0.4314,9.5693,0.0186c0.8879,0.1246,1.8315-0.0654,2.7397-0.1855c2.3452-0.3101,4.6309,0.4908,7.0776-0.0562 c2.2739-0.5084,4.7861,0.0408,7.1929,0.1384c1.4307,0.0579,2.8602,0.2034,4.2904,0.2057 c11.2278,0.0178,22.4596,0.1969,33.6816-0.0579c6.9071-0.1568,13.7994,0.31,20.6986,0.0591 c4.2156-0.1533,8.4326-0.4144,12.6477-0.3923c7.3113,0.0382,14.6211,0.3235,21.9324,0.3854 c8.5197,0.0721,17.0419,0.105,25.5596-0.0435c2.3569-0.0411,4.3671,0.9072,6.436,1.5654c2.347,0.7468,4.4624,1.9826,7.1057,1.8713 c1.5623-0.0658,3.2219,0.639,4.2461,1.9979c1.1182,1.4836,0.6919,2.7223-1.1396,4.0806c-0.2375,0.1762-0.4232,0.4223-0.6329,0.636 c0.2399,0.1085,0.4728,0.2866,0.7212,0.3121c0.6907,0.0708,1.416-0.0344,2.0771,0.1314c2.1042,0.5275,3.4698,2.0855,4.7152,3.7119 C455.0129,18.2029,454.8396,18.9394,454.6255,19.3496z M18.3384,22.5602c-0.0642-0.0939-0.1731-0.1573-0.2717-0.2401 c-0.0393,0.1614-0.0732,0.3015-0.1074,0.4416c0.1147,0.008,0.2316,0.0303,0.3423,0.0131 C18.3273,22.7708,18.3698,22.6059,18.3384,22.5602z M25.6572,33.3895c-0.2034-0.1325-0.3944-0.3517-0.6121-0.3824 c-0.8369-0.1178-1.6816-0.2185-2.5249-0.2314c-0.2871-0.0044-0.5785,0.269-0.8679,0.4155c0.2766,0.1506,0.5388,0.3497,0.8341,0.4366 c0.2479,0.073,0.5343,0.015,0.5648,0.015c0.7771-0.043,1.3162-0.0616,1.8527-0.1075 C25.1573,33.5137,25.4062,33.4398,25.6572,33.3895z M26.3906,31.3907l-0.0498-0.1879l-0.0977,0.1616L26.3906,31.3907z M29.2274,6.0156c-0.051-0.0566-0.1019-0.1132-0.153-0.1698c-0.0587,0.0772-0.1174,0.1545-0.176,0.2318 c0.0525,0.0298,0.105,0.0595,0.1577,0.0893C29.1132,6.1165,29.1703,6.066,29.2274,6.0156z M114.2439,45.743 c-0.046-0.0256-0.1118-0.0903-0.1489-0.0768c-0.0664,0.0243-0.1157,0.0958-0.1722,0.1475c0.1071,0.0319,0.214,0.0637,0.3212,0.0955 C114.2439,45.8551,114.2439,45.801,114.2439,45.743z M119.6975,45.743c-0.0459-0.0256-0.1117-0.0904-0.1489-0.0768 c-0.0664,0.0242-0.1157,0.0958-0.1721,0.1475c0.1071,0.0319,0.2141,0.0637,0.321,0.0955 C119.6975,45.8551,119.6975,45.801,119.6975,45.743z M122.9697,42.4707c-0.0459-0.0256-0.1117-0.0904-0.1489-0.0768 c-0.0664,0.0242-0.1156,0.0958-0.1721,0.1475c0.1071,0.0319,0.2141,0.0637,0.321,0.0955 C122.9697,42.5828,122.9697,42.5287,122.9697,42.4707z M126.7565,46.2484c-0.0541,0-0.1083,0-0.1661,0 c-0.0256,0.046-0.0905,0.1118-0.0769,0.149c0.0243,0.0665,0.0957,0.1157,0.1475,0.1721 C126.6929,46.4625,126.7246,46.3555,126.7565,46.2484z M128.0251,41.68c-0.0853-0.1262-0.1707-0.2524-0.2559-0.3786 c-0.0909,0.1213-0.2749,0.2657-0.2518,0.3589c0.0392,0.1583,0.2087,0.2843,0.3235,0.4239 C127.9026,41.9497,127.9641,41.8152,128.0251,41.68z M130.0288,43.5215c-0.0542,0-0.1084,0-0.1663,0 c-0.0256,0.046-0.0905,0.1118-0.0769,0.149c0.0243,0.0665,0.0958,0.1157,0.1475,0.1721 C129.9651,43.7356,129.9968,43.6286,130.0288,43.5215z M132.3921,40.524c0.1033,0.2812,0.266,0.5405,0.4078,0.8074 c0.1807,0.0844,0.3612,0.1688,0.5419,0.2532c-0.0859-0.1805-0.1718-0.3611-0.2577-0.5416c-0.1344-0.272-0.2689-0.5439-0.4034-0.816 C132.5786,40.3282,132.3716,40.4679,132.3921,40.524z M133.4116,46.3519c0.04-0.2993-0.2764-0.6462-0.7329-1.5709 c-0.3499,0.6429-0.6626,0.9537-0.6101,1.179c0.0944,0.4039,0.4084,0.7563,0.6307,1.1303 C132.952,46.8461,133.375,46.6249,133.4116,46.3519z M135.5581,37.6077c-0.0518-0.0564-0.1035-0.1129-0.1553-0.1693 c-0.0564,0.0518-0.1129,0.1035-0.1693,0.1553c0.0787,0.0575,0.1573,0.1151,0.2361,0.1726 C135.499,37.7136,135.5286,37.6606,135.5581,37.6077z M138.6222,34.7413c-0.0363,0.0557,0.2089,0.4206,0.3207,0.4185 c0.1951-0.0036,0.387-0.1822,0.6752-0.3392c-0.2017-0.2415-0.3907-0.5504-0.4524-0.5268 C138.9529,34.3754,138.7473,34.5488,138.6222,34.7413z M137.6948,41.9254c-0.0459-0.0256-0.1118-0.0905-0.1489-0.0769 c-0.0664,0.0243-0.1157,0.0958-0.1721,0.1475c0.1069,0.0319,0.2141,0.0637,0.321,0.0956 C137.6948,42.0375,137.6948,41.9833,137.6948,41.9254z M139.9659,42.012c-0.3158-0.8383-0.6613-1.6653-1.0283-2.5583 c-0.4489,0.2893-0.7159,0.3747-0.726,0.4836c-0.0356,0.3909-0.125,0.8865,0.0659,1.1639c0.3181,0.4625,0.8279,0.7986,1.2841,1.1529 C139.6096,42.2913,139.9771,42.0417,139.9659,42.012z M142.304,43.6507c-0.4089-0.3524-0.6923-0.7811-0.9342-0.7589 c-0.3075,0.0283-0.6403,0.3839-0.8339,0.6817c-0.0586,0.0902,0.3501,0.6793,0.4724,0.6561 C141.4117,44.1534,141.782,43.9018,142.304,43.6507z M142.3267,37.973c-0.2322-0.2434-0.3755-0.5208-0.5464-0.5391 c-0.1938-0.0207-0.4125,0.1908-0.6204,0.3014c0.1757,0.2308,0.3256,0.4943,0.5464,0.6674 C141.7566,38.442,142.0526,38.1677,142.3267,37.973z M146.5996,37.7756c-0.0446,0.1566,0.3418,0.6086,0.5461,0.6167 c0.2233,0.0089,0.4607-0.3411,1.0297-0.8172c-0.4178-0.2451-0.7264-0.5624-0.9083-0.5015 C146.9849,37.1682,146.681,37.4897,146.5996,37.7756z M144.5376,34.788c0.0859,0.1806,0.1719,0.3611,0.2578,0.5416 c0.3645,0.3645,0.729,0.729,1.0935,1.0935c0.1807,0.0844,0.3612,0.1688,0.5419,0.2532c-0.0858-0.1805-0.1718-0.361-0.2577-0.5416 c-0.2908-0.4382,0.5476-2.0056-1.0935-1.0935C144.8989,34.9568,144.7183,34.8724,144.5376,34.788z M149.053,44.3318 c-0.3689-0.5232-0.6426-1.173-1.1296-1.539c-0.6765-0.5086-1.5132-0.8044-2.2812-1.1913c-0.0032-0.4562-0.0062-0.9124-0.0094-1.3687 c0.1381-0.2688,0.296-0.5304,0.3962-0.8126c0.0189-0.0534-0.1918-0.1884-0.2965-0.2857c-0.1338,0.2756-0.2676,0.5512-0.4014,0.8268 c-1.019-0.7075-1.4174-0.036-1.5383,0.8025c-0.1777,1.2314,0.8209,1.0368,1.5547,1.1172c0.5769,0.6993,1.0566,1.5302,1.7642,2.0525 C147.5938,44.2896,148.3945,44.2142,149.053,44.3318z M153.3601,33.9207c0.3992-0.8703,0.6973-1.2661,0.7256-1.6804 c0.0159-0.2336-0.4122-0.4977-0.6403-0.7481c-0.298,0.2761-0.6744,0.5096-0.8577,0.8479 C152.5071,32.4891,152.8196,32.8509,153.3601,33.9207z M149.8093,35.2339c0.3342,0.0385,0.6685,0.077,1.0027,0.1155 c0.1804,0.2991,0.3245,0.6303,0.552,0.8878c0.2026,0.2292,0.4976,0.377,0.7517,0.5607c0.1863-0.3446,0.5034-0.6772,0.5364-1.0359 c0.1481-1.6135-0.9441-0.6244-1.5369-0.6908c0.0674-0.4678,0.1349-0.9355,0.2024-1.4034c-0.3783,0.2054-0.8156,0.3492-1.1155,0.6364 C149.979,34.5178,149.9337,34.9172,149.8093,35.2339z M154.1731,43.2854c-0.2085-0.2473-0.3048-0.3615-0.4011-0.4756 c-0.4026,0.3576-0.8153,0.7053-1.193,1.0876c-0.0392,0.0396,0.13,0.2851,0.2025,0.4351 C153.24,43.9874,153.6985,43.6425,154.1731,43.2854z M155.1709,38.7073c-0.2756-0.1338-0.5513-0.2676-0.8269-0.4014 c0.0039-0.2656,0.0078-0.5312,0.0117-0.7968c0.0845-0.1807,0.1689-0.3613,0.2533-0.5419c-0.1805,0.0859-0.3612,0.1718-0.5416,0.2578 c-1.0264,0.0642-1.573,0.6077-1.635,1.6359c-0.1823,0.1819-0.3645,0.364-0.5465,0.546c-0.1821,0.1821-0.3643,0.3641-0.5464,0.5461 c-0.5375,0.3152-1.1158,0.5808-1.5922,0.9709c-0.1841,0.1508-0.2264,0.8347-0.1812,0.8508c0.6302,0.2257,1.2834,0.47,1.9392,0.4946 c0.2108,0.0079,0.4453-0.6106,0.6689-0.9426c0.0844-0.1807,0.1688-0.3613,0.2532-0.5419c-0.1805,0.0859-0.3611,0.1718-0.5416,0.2578 c-0.0865-0.2681-0.1732-0.5361-0.2598-0.8042c0.182-0.182,0.3641-0.364,0.546-0.546c0.1821-0.182,0.364-0.364,0.546-0.5461 c0.4514-0.1796,0.903-0.3591,1.3544-0.5388c0.2688,0.138,0.5305,0.296,0.8125,0.3962 C154.9385,39.0228,155.0735,38.812,155.1709,38.7073z M158.4865,42.0237c-0.2091-0.6361-0.4135-1.2739-0.6339-1.9061 c-0.0239-0.0685-0.1416-0.1042-0.2158-0.1552c-0.2705-0.3273-0.541-0.6546-0.8115-0.9819 c-0.0173,0.3299-0.0348,0.6598-0.0522,0.9897c-1.2715,0.1191-1.3489,1.0545-0.6838,1.6319 C156.6143,42.0582,157.6676,41.9059,158.4865,42.0237z M158.5182,35.0043c-0.6635-0.4714-1.0269-0.9313-1.4061-0.9448 c-0.4153-0.0148-0.8452,0.3825-1.2688,0.6002c0.3086,0.4935,0.6174,0.9871,0.926,1.4807 C157.251,35.8275,157.7327,35.5146,158.5182,35.0043z M162.5374,30.6796c0.1805-0.0859,0.3611-0.1718,0.5416-0.2578 c0.0851-0.1815,0.17-0.3629,0.255-0.5443c-0.1812,0.0867-0.3623,0.1734-0.5433,0.2601 C162.7062,30.3184,162.6218,30.499,162.5374,30.6796z M160.1895,32.3655c-0.0398,0.1145,0.2122,0.3301,0.4795,0.7119 c0.2737-0.5645,0.4838-0.9087,0.5875-1.2824c0.0222-0.0802-0.3402-0.2673-0.5253-0.4051 C160.5422,31.7122,160.3093,32.0192,160.1895,32.3655z M159.9017,38.3969c0.433,0.3329,1.088,0.377,1.6472,0.5459 c-0.0321-0.48-0.0643-0.96-0.0966-1.44c0.7444-0.4105,1.741-0.652,2.1613-1.2795c0.4089-0.6106,0.2572-1.6164,0.2615-2.4491 c0.0005-0.0873-0.6084-0.2385-0.9335-0.2358c-0.1238,0.001-0.366,0.3663-0.3453,0.5409c0.0775,0.6558,0.7125,1.7994-0.8024,0.7413 c-0.0291-0.0203-0.4746,0.3593-0.5137,0.5884c-0.1003,0.5897-0.0813,1.1998-0.1101,1.8016 c-0.4069-0.1282-0.8066-0.3014-1.2234-0.366c-0.2136-0.0331-0.4573,0.1279-0.6873,0.2011 C159.4635,37.5091,159.5496,38.126,159.9017,38.3969z M164.015,40.9598c-0.3749-0.6019-1.1588-0.9492-1.7609-1.4097 c-0.0911,0.5398-0.1804,1.08-0.2737,1.6193c-0.0863,0.499-0.177,0.9973-0.2659,1.4958c-0.2583,0.0206-0.5793-0.0471-0.7606,0.0818 c-0.2882,0.205-0.4829,0.5411-0.7172,0.8218c0.2872,0.1367,0.6914,0.4632,0.8387,0.3725c0.3691-0.2272,0.6218-0.6436,0.9213-0.9841 c0.3691-0.1906,0.7196-0.4472,1.1113-0.5579C163.8877,42.1794,164.4939,41.7288,164.015,40.9598z M168.9451,29.4072 c0.147,0.2845,0.4458,0.5018,0.718,0.6961c0.0332,0.0237,0.2881-0.2631,0.5593-0.5176c-0.4009-0.3292-0.7139-0.5862-1.0269-0.8431 C169.1025,28.969,168.8723,29.2662,168.9451,29.4072z M167.4679,36.438c0.0065,0.1407,0.4358,0.4173,0.4966,0.3761 c0.7198-0.4883,1.4462-0.9841,2.0717-1.5817c0.1355-0.1294-0.1218-0.67-0.1865-0.9679 C168.6145,34.3425,167.425,35.5207,167.4679,36.438z M165.464,32.8743c0.5868-0.359,1.2233-0.6629,1.7252-1.1159 c0.125-0.1127-0.1848-0.7072-0.2947-1.0801c-0.1807-0.0845-0.3613-0.1688-0.542-0.2532c0.0859,0.1806,0.1719,0.3611,0.2578,0.5416 c-0.4771,0.3657-0.9871,0.6986-1.4041,1.1232C165.1177,32.1801,165.3691,32.6041,165.464,32.8743z M166.4907,36.928 c-0.2183,0.356-0.49,0.6942-0.6178,1.0801c-0.0331,0.0996,0.3658,0.4526,0.6038,0.4995c0.2233,0.0439,0.4961-0.1628,0.8517-0.2994 C166.9497,37.6293,166.7202,37.2787,166.4907,36.928z M165.478,36.4317c-0.0542,0-0.1084,0-0.1663,0 c-0.0256,0.046-0.0905,0.1118-0.0769,0.149c0.0242,0.0665,0.0957,0.1157,0.1475,0.1721 C165.4143,36.6458,165.446,36.5388,165.478,36.4317z M168.499,42.4293c-0.2148-0.3068-0.3439-0.5808-0.4061-0.5665 c-0.7765,0.1799-1.6486,0.2509-2.2643,0.6815c-0.2743,0.1918-0.0273,1.1291-0.0168,1.7281 c0.4308-0.1207,0.9436-0.1339,1.2739-0.3861C167.6292,43.4713,168.0544,42.9015,168.499,42.4293z M170.4526,41.2599 c-0.2295-0.4074-0.4121-0.9553-0.7815-1.307c-0.2362-0.225-0.978-0.3418-1.0957-0.193c-0.4343,0.5493-0.4448,1.2043,0.3412,1.5156 c0.4493,0.1779,0.9611,0.199,1.4464,0.2797C170.3723,41.5568,170.4042,41.4218,170.4526,41.2599z M175.9773,34.8724 c-0.1877-0.518-0.6206-0.9472-1.3396-1.993c-0.1672,1.2955-0.3044,1.9318-0.2996,2.5671c0.0015,0.2044,0.4434,0.6133,0.5708,0.5729 C175.451,35.8472,176.3086,35.7869,175.9773,34.8724z M173.3291,29.7418c-0.0315,0.0674,0.5166,0.5732,0.6543,0.5183 c0.3534-0.1408,0.6265-0.4831,1.0667-0.8608c-0.4475-0.3019-0.8767-0.7045-0.9734-0.6362 C173.751,28.9932,173.5018,29.3712,173.3291,29.7418z M172.3002,32.3357c0.218-0.1202,0.4369-0.213,0.429-0.2408 c-0.0604-0.2117-0.1654-0.4106-0.2565-0.6136c-0.0575,0.0565-0.1582,0.1085-0.1646,0.1703 C172.2871,31.8541,172.3002,32.0602,172.3002,32.3357z M171.8093,36.0797c0.053,0.0295,0.1058,0.059,0.1587,0.0884 c0.0564-0.0518,0.1129-0.1035,0.1694-0.1552c-0.0519-0.0565-0.1036-0.1129-0.1554-0.1693 C171.9246,35.9222,171.8669,36.0009,171.8093,36.0797z M173.6155,37.2952c-0.0112-0.2606-0.6812-0.493-0.5168-0.3829 c-2.0497-0.5405-1.7529,0.6819-2.0002,1.3657c-0.0381,0.1053,0.35,0.3647,0.541,0.5529 C172.1687,38.1252,173.6724,38.623,173.6155,37.2952z M174.3501,43.4072c-0.9572-0.5169-1.5208-0.8381-2.1079-1.108 c-0.0496-0.0227-0.3948,0.415-0.3711,0.443c0.3669,0.4338,0.7343,0.8892,1.1921,1.2105 C173.1958,44.0458,173.6132,43.7329,174.3501,43.4072z M175.8652,39.1994c-0.9723-0.7074-1.6295-0.0433-2.1658,0.7537 c-0.6455,0.4613-0.6399,0.9208,0.0037,1.3786c0.178,1.3715,0.8132,1.2092,1.5986,0.4662 C176.1333,41.0112,176.4811,39.6475,175.8652,39.1994z M176.4163,41.9254c-0.0459-0.0256-0.1118-0.0905-0.1489-0.0769 c-0.0664,0.0243-0.1157,0.0958-0.1721,0.1475c0.1069,0.0319,0.2141,0.0637,0.321,0.0956 C176.4163,42.0375,176.4163,41.9833,176.4163,41.9254z M190.3937,25.184c0.2384,0.0884,0.4984,0.2835,0.7098,0.2402 c0.3125-0.0641,0.5903-0.2975,0.8829-0.4587c0.0844-0.1807,0.1688-0.3613,0.2533-0.5419c-0.1807,0.0859-0.3611,0.1718-0.5417,0.2577 c-0.1775,0.0109-0.3752-0.0245-0.5278,0.0428C190.897,24.8448,190.6511,25.0273,190.3937,25.184z M187.6682,27.8807 c0.0889,0.2109,0.2665,0.4107,0.4617,0.5333c0.0538,0.0338,0.4111-0.2194,0.4075-0.3337c-0.0063-0.193-0.1895-0.3802-0.3536-0.6664 C187.9448,27.6245,187.6433,27.8214,187.6682,27.8807z M185.4077,28.8679c0.0787,0.0576,0.1575,0.1151,0.2361,0.1726 c0.0295-0.0529,0.0591-0.1058,0.0885-0.1587c-0.0518-0.0564-0.1035-0.1129-0.1553-0.1693 C185.5206,28.7643,185.4641,28.8161,185.4077,28.8679z M183.3186,31.773c0.5999-0.1944,1.2222-0.3387,1.7938-0.5958 c0.702-0.3159,1.3615-0.7261,2.3381-1.2582c-0.6119-0.3553-0.8231-0.5803-0.9652-0.5428c-0.6249,0.1644-1.3354,0.2718-1.8145,0.6523 C184.1113,30.473,183.7603,31.1799,183.3186,31.773z M186.5813,32.0687c-0.0256,0.046-0.0905,0.1118-0.0769,0.149 c0.0243,0.0665,0.0957,0.1157,0.1475,0.1721c0.032-0.1071,0.0637-0.2141,0.0956-0.3211 C186.6934,32.0687,186.6392,32.0687,186.5813,32.0687z M185.4651,35.6953c-0.3152,0.2923-0.5608,0.6965-0.7107,1.1022 c-0.0338,0.092,0.4303,0.3677,0.6652,0.5588c0.2919-0.3943,0.5836-0.7886,1.0297-1.3914 C185.9856,35.8282,185.5718,35.5962,185.4651,35.6953z M181.6254,28.4981c0.1805-0.0859,0.3612-0.1718,0.5416-0.2577 c0.2936-0.1462,0.5872-0.2925,0.8806-0.4387c-0.2437-0.243-0.4874-0.4861-0.7312-0.7292c-0.1459,0.2946-0.2917,0.5892-0.4377,0.8837 C181.7942,28.1368,181.7097,28.3175,181.6254,28.4981z M178.3662,30.4709c0.271,0.1431,0.6013,0.4631,0.8018,0.3958 c0.5933-0.1991,1.1354-0.5511,2.0735-1.0387c-0.9006-0.3508-1.4802-0.7903-1.7891-0.6468 C178.9904,29.396,178.7189,30.0206,178.3662,30.4709z M176.7178,32.8074c0.0529,0.0295,0.1057,0.059,0.1587,0.0884 c0.0564-0.0517,0.1128-0.1035,0.1692-0.1552c-0.0518-0.0565-0.1035-0.1129-0.1553-0.1693 C176.8328,32.65,176.7753,32.7287,176.7178,32.8074z M179.4429,36.9631c0-0.2754-0.0001-0.5508-0.0002-0.8262 c-0.2241-0.3216-0.4402-0.6497-0.6882-0.9515c-0.0188-0.0229-0.2654,0.1413-0.406,0.2185c0.1836,0.29,0.3608,0.5847,0.5559,0.8668 c0.0459,0.0662,0.1526,0.0901,0.2314,0.1334c0.024,0.0941,0.0271,0.1888,0.0093,0.2842c-0.4061-0.1353-0.8872-0.4741-1.2007-0.3585 c-0.4749,0.1752-0.8953,0.6198-1.213,1.0441c-0.149,0.1989-0.0476,0.8845,0.014,0.8945c0.4757,0.077,1.0645,0.2107,1.4348,0.0018 C178.6858,37.985,179.0298,37.4126,179.4429,36.9631z M180.2587,35.7313c0.2831-0.1009,0.5455-0.2598,0.8151-0.3986 c0.6415-0.4572,1.3853-0.8271,1.8804-1.4089c0.2407-0.2828,0.0964-0.9846-0.037-1.4499c-0.0533-0.1865-0.5764-0.3895-0.8322-0.3347 c-0.4937,0.1058-1.2891,2.0366-1.2825,2.8912c-0.277,0.1346-0.554,0.2692-0.8308,0.4038 C180.0695,35.5392,180.2051,35.7504,180.2587,35.7313z M182.4287,41.8768c0.1807,0.0845,0.3613,0.1688,0.542,0.2532 c-0.0859-0.1805-0.1719-0.3611-0.2577-0.5416c-0.1823-0.1822-0.3646-0.3644-0.547-0.5466c-0.1077-0.3196-0.1283-0.7316-0.345-0.9359 c-0.2778-0.262-0.7036-0.3945-1.0886-0.4922c-0.0779-0.0198-0.4147,0.4351-0.363,0.55c0.1799,0.3995,0.4343,0.7917,0.7507,1.0916 c0.1455,0.138,0.5002,0.0553,0.7604,0.0725C182.0632,41.5108,182.2461,41.6938,182.4287,41.8768z M183.0054,44.6976 c-0.0518-0.0564-0.1035-0.1129-0.1553-0.1693c-0.0564,0.0518-0.1128,0.1036-0.1692,0.1553 c0.0787,0.0576,0.1575,0.1151,0.2361,0.1727C182.9465,44.8034,182.976,44.7505,183.0054,44.6976z M183.6748,38.2866 c0.0642-0.052,0.0884-0.1536,0.1311-0.2322c0.0844-0.1806,0.1687-0.3613,0.2532-0.5419c-0.1805,0.0859-0.3611,0.1718-0.5417,0.2577 c-0.5027,0.4036-1.0107,0.801-1.4941,1.2264c-0.0288,0.0253,0.1409,0.2758,0.2181,0.4215 C182.7202,39.0422,183.2014,38.6694,183.6748,38.2866z M184.8655,43.3467c-0.2632-0.2137-0.5449-0.5042-0.5917-0.4703 c-0.2272,0.1646-0.3915,0.4163-0.578,0.637c0.1981,0.1208,0.4021,0.3436,0.5925,0.3325 C184.4619,43.8358,184.6206,43.572,184.8655,43.3467z M185.8008,42.8166c0.563-0.5142,1.1259-1.0284,1.6887-1.5425 c-0.6531-0.6038-1.3062-1.2074-2.2539-2.0833c-0.4011,0.613-0.8901,1.0695-0.8008,1.2752 C184.7927,41.2917,185.3298,42.0398,185.8008,42.8166z M188.1099,44.9932c-0.5352,0.248-1.2225,0.3773-1.5454,0.791 c-0.1726,0.2212,0.2114,0.877,0.3787,1.3633c0.3511-0.2042,0.8423-0.3423,0.9854-0.6448 C188.134,46.0681,188.0627,45.5026,188.1099,44.9932z M188.5605,39.6057c-0.0605-0.1355-0.1211-0.2711-0.1816-0.4066 c-0.1157,0.1393-0.2864,0.2649-0.3264,0.4234c-0.0236,0.0931,0.1604,0.2386,0.251,0.3607 C188.389,39.8575,188.4746,39.732,188.5605,39.6057z M189.0439,38.1943c-0.0518-0.0564-0.1035-0.1128-0.1553-0.1693 c-0.0576,0.0787-0.1152,0.1574-0.1727,0.2361c0.0529,0.0295,0.1057,0.0589,0.1586,0.0884 C188.931,38.2978,188.9875,38.246,189.0439,38.1943z M189.3147,31.3799c-0.312,0.1127-0.7952,0.1446-0.8955,0.3572 c-0.1484,0.3144-0.0247,0.7571-0.0168,1.1451c-0.7407,0.1884-1.8889-0.4959-2.0493,0.9061c-0.0305,0.2665,0.22,0.7734,0.4261,0.8244 c1.1947,0.2955,1.7865-0.3259,1.9388-1.4702c0.189-0.2872,0.4366-0.5534,0.5491-0.868 C189.3633,32.005,189.3047,31.6802,189.3147,31.3799z M189.6937,30.2874c0.3783,0.4869,0.8109,0.9316,1.4395,1.6188 c0.3842-0.6476,0.5389-0.9086,0.6937-1.1697c-0.5732-0.3309-1.1398-0.6752-1.7329-0.9652 C190.0502,29.7499,189.658,30.2412,189.6937,30.2874z M191.6428,42.6456c0.0813-0.2372-0.3728-0.6576-0.7083-1.1842 c-0.3501,0.3735-0.7405,0.6069-0.7285,0.8177c0.0205,0.3657,0.29,0.7174,0.4551,1.075 C191.0081,43.1247,191.5361,42.9573,191.6428,42.6456z M192.708,34.7575c-0.2256,0.1282-0.5314,0.2039-0.658,0.3969 c-0.1875,0.286-0.2477,0.6553-0.3621,0.9892c-0.5076-0.3273-1.0728-0.9182-1.4875,0.0135 c-0.1167,0.2623,0.2734,1.0544,0.3344,1.0439c0.5509-0.0952,1.5599,0.5147,1.4514-0.7826c0.2731-0.2336,0.6467-0.4192,0.7886-0.7156 C192.8933,35.4551,192.7405,35.0776,192.708,34.7575z M209.0889,30.4089c-0.2402,0.2051-0.4803,0.4103-0.7205,0.6154 c0.1691,0.1136,0.3572,0.3378,0.5026,0.3129c0.1815-0.0311,0.3278-0.2673,0.4723-0.3995 C209.2297,30.7017,209.1594,30.5553,209.0889,30.4089z M208.3193,25.6732c0.0242,0.0665,0.0957,0.1157,0.1475,0.1721 c0.0319-0.107,0.0637-0.2141,0.0956-0.3211c-0.0541,0-0.1083,0-0.1661,0C208.3706,25.5703,208.3057,25.6361,208.3193,25.6732z M205.6226,16.9916c0.0527,0.0294,0.1057,0.0589,0.1586,0.0884c0.0564-0.0518,0.1129-0.1035,0.1693-0.1552 c-0.0518-0.0565-0.1035-0.1129-0.1553-0.1693C205.7375,16.8342,205.6801,16.9129,205.6226,16.9916z M204.9594,22.4227 c0.1647,0.2429,0.2991,0.5217,0.5148,0.7043c0.0564,0.0478,0.3661-0.2036,0.6462-0.3687c-0.2102-0.2674-0.3311-0.5685-0.501-0.5992 C205.4216,22.1234,205.1813,22.3244,204.9594,22.4227z M205.2104,28.1671c-0.0564,0.0518-0.1128,0.1036-0.1692,0.1553 c0.0786,0.0576,0.1573,0.1151,0.236,0.1727c0.0294-0.0529,0.059-0.1058,0.0885-0.1587 C205.314,28.28,205.2622,28.2236,205.2104,28.1671z M202.2334,25.2991c0.0392,0.1583,0.2087,0.2844,0.3235,0.424 c0.0616-0.1345,0.1232-0.269,0.1843-0.4042c-0.0853-0.1262-0.1707-0.2524-0.256-0.3787 C202.3943,25.0615,202.2104,25.2059,202.2334,25.2991z M202.4836,30.894c-0.0564,0.0518-0.1129,0.1036-0.1693,0.1553 c0.0787,0.0576,0.1573,0.1151,0.2361,0.1727c0.0294-0.0529,0.059-0.1058,0.0885-0.1587 C202.5872,31.0068,202.5354,30.9504,202.4836,30.894z M199.1591,34.2028c-0.0338,0.0538,0.2194,0.4111,0.3336,0.4073 c0.1931-0.0063,0.3804-0.1895,0.6664-0.3536c-0.2096-0.2379-0.4066-0.5404-0.4667-0.5153 C199.4814,33.8292,199.2817,34.0076,199.1591,34.2028z M196.8965,25.1722c0.053,0.0295,0.1057,0.059,0.1587,0.0884 c0.0564-0.0517,0.1128-0.1035,0.1693-0.1552c-0.0518-0.0564-0.1035-0.1129-0.1553-0.1693 C197.0117,25.0148,196.9541,25.0935,196.8965,25.1722z M194.1658,33.9532c0.0486-0.3033,0.0969-0.6066,0.1454-0.91 c-0.2406,0.0341-0.4812,0.0682-0.7218,0.1022c0.0974,0.3654,0.1948,0.7308,0.2922,1.0961c0.1807,0.0844,0.3613,0.1688,0.542,0.2532 C194.3376,34.3143,194.2517,34.1338,194.1658,33.9532z M193.0781,29.0435c0.1807-0.0859,0.3612-0.1718,0.5417-0.2578 c0.0995-0.5249,0.199-1.0497,0.2983-1.5747c-0.1543,0.0059-0.4385-0.0099-0.4436,0.0211c-0.0703,0.4194-0.1021,0.8452-0.1431,1.2695 C193.2471,28.6823,193.1626,28.8629,193.0781,29.0435z M194.6626,45.3967c-0.2806-0.1485-0.4978-0.3594-0.678-0.3314 c-0.1765,0.0274-0.3152,0.2981-0.4705,0.462c0.2294,0.1774,0.4587,0.3549,0.688,0.5323 C194.3362,45.8666,194.4702,45.6737,194.6626,45.3967z M195.7783,39.4922c-1.0984-0.3186-1.554-0.5765-1.9766-0.5303 c-0.2932,0.032-0.5405,0.4826-0.8085,0.7462c0.3745,0.158,0.7449,0.4268,1.1249,0.441 C194.4585,40.1619,194.8093,39.8945,195.7783,39.4922z M195.8051,31.7704c0.1805-0.0859,0.3611-0.1719,0.5416-0.2578 c0.2637-0.0145,0.5961,0.0652,0.7749-0.0654c0.2754-0.2014,0.4456-0.5468,0.6604-0.8311c-0.2957,0.0158-0.6158-0.0341-0.8806,0.0647 c-0.3064,0.1143-0.5642,0.3593-0.843,0.5475C195.9739,31.4091,195.8894,31.5897,195.8051,31.7704z M196.1565,36.5406 c0.0317,0.2359,0.3904,0.6472,0.489,0.6158c0.3888-0.1236,0.7317-0.3912,1.0918-0.6054c-0.3481-0.2326-0.6963-0.4653-1.2708-0.8491 C196.3401,36.0142,196.1233,36.2943,196.1565,36.5406z M197.4075,43.5501c0.4314-0.6435,0.7319-1.3747,1.1455-2.2143 c0.0587,0.0959-0.0402-0.1506-0.0941-0.1411c-0.6637,0.1165-1.464,0.0955-1.9291,0.4763c-0.3098,0.2537-0.2052,1.1028-0.1321,1.6654 C196.4138,43.4603,197.3298,43.6661,197.4075,43.5501z M198.8104,44.5502c-0.2789,0-0.4824-0.0134-0.6823,0.0079 c-0.0627,0.0067-0.1155,0.1062-0.1727,0.1632c0.2023,0.092,0.4004,0.1976,0.6115,0.2592 C198.5945,44.9886,198.6882,44.7702,198.8104,44.5502z M198.8213,35.4263c-0.0518-0.0565-0.1035-0.1129-0.1553-0.1693 c-0.0565,0.0518-0.1129,0.1036-0.1693,0.1553c0.0787,0.0576,0.1573,0.1151,0.2361,0.1727 C198.7622,35.532,198.7917,35.4791,198.8213,35.4263z M199.3596,40.6437c0.2811-0.1031,0.5404-0.266,0.8074-0.4078 c0.0845-0.1807,0.1689-0.3613,0.2533-0.5419c-0.1805,0.0859-0.3612,0.1718-0.5416,0.2578c-0.272,0.1345-0.5439,0.269-0.8159,0.4034 C199.1638,40.4573,199.3035,40.6643,199.3596,40.6437z M201.5134,47.0385c-0.0859-0.1806-0.1719-0.3611-0.2578-0.5416 c0.0249-0.4857,0.0497-0.9714,0.0745-1.4571c-0.5518,0.1528-1.2397,0.1603-1.6101,0.507c-0.269,0.2519-0.118,0.9525-0.1543,1.453 c0.4685-0.0715,0.9373-0.1431,1.4058-0.2145C201.1521,46.8696,201.3328,46.954,201.5134,47.0385z M201.5481,44.1522 c-0.0518-0.0564-0.1035-0.1129-0.1553-0.1693c-0.0564,0.0518-0.1128,0.1036-0.1692,0.1553 c0.0786,0.0576,0.1573,0.1151,0.2361,0.1727C201.4891,44.258,201.5186,44.2051,201.5481,44.1522z M202.7412,43.3161 c-0.0853-0.1262-0.1707-0.2524-0.256-0.3786c-0.0909,0.1213-0.2748,0.2657-0.2518,0.3589c0.0392,0.1583,0.2087,0.2843,0.3235,0.4239 C202.6185,43.5858,202.6801,43.4514,202.7412,43.3161z M203.6221,36.9584c-0.3542-0.4314-0.748-0.8304-1.2437-1.3546 c-0.2866,0.4657-0.4591,0.7459-0.6316,1.026c0.4937,0.2646,0.9795,0.5475,1.4919,0.7686 C203.297,37.4235,203.6453,36.9866,203.6221,36.9584z M204.1995,35.8863c-0.0542,0-0.1084,0-0.1663,0 c-0.0256,0.0461-0.0905,0.1118-0.0769,0.149c0.0243,0.0665,0.0957,0.1157,0.1475,0.1721 C204.1357,36.1004,204.1675,35.9933,204.1995,35.8863z M205.323,35.162c0.1815-0.0115,0.3521-0.197,0.5275-0.3052 c-0.233-0.2142-0.4661-0.4284-0.6991-0.6426c-0.0745,0.1435-0.1489,0.287-0.4235,0.8167 C204.8315,35.057,205.0815,35.1772,205.323,35.162z M207.0439,46.3444c-0.2437-0.2431-0.4873-0.4861-0.7311-0.7292 c-0.1459,0.2946-0.2919,0.5892-0.4379,0.8837c-0.0845,0.1806-0.1688,0.3613-0.2532,0.5419 c0.1804-0.0859,0.3611-0.1718,0.5416-0.2578C206.457,46.6368,206.7505,46.4906,207.0439,46.3444z M207.234,39.8716 c-0.4396-0.1722-0.8219-0.4401-0.9496-0.3494c-0.3435,0.244-0.6334,0.6143-0.8184,0.9957 c-0.0474,0.0979,0.3727,0.4224,0.5779,0.6428C206.3655,40.8124,206.687,40.4642,207.234,39.8716z M209.2571,43.238 c-0.033-0.1799-0.2721-0.3221-0.4017-0.459c-0.2367,0.1147-0.3823,0.1852-0.528,0.2557c0.208,0.2372,0.416,0.4744,0.6241,0.7116 C209.0627,43.5751,209.2839,43.3839,209.2571,43.238z M209.3938,37.7259c-0.355-0.3229-0.6804-0.776-0.8303-0.7239 c-0.355,0.1232-0.6699,0.4557-0.8969,0.7772c-0.0482,0.0683,0.4142,0.6787,0.5272,0.6459 C208.5785,38.3137,208.9121,38.0262,209.3938,37.7259z M211.5034,40.7132c-0.0234,0.0931,0.1604,0.2387,0.251,0.3607 c0.0857-0.1255,0.1711-0.2511,0.2572-0.3774c-0.0605-0.1355-0.1211-0.2711-0.1816-0.4066 C211.7141,40.4292,211.5437,40.5547,211.5034,40.7132z M211.0762,22.9907c0.053,0.0295,0.1057,0.059,0.1587,0.0884 c0.0564-0.0517,0.1128-0.1035,0.1693-0.1552c-0.0518-0.0565-0.1035-0.1129-0.1554-0.1693 C211.1914,22.8333,211.1338,22.912,211.0762,22.9907z M211.0762,28.4445c0.053,0.0294,0.1057,0.059,0.1587,0.0884 c0.0564-0.0518,0.1128-0.1035,0.1693-0.1552c-0.0518-0.0565-0.1035-0.1129-0.1554-0.1693 C211.1913,28.287,211.1338,28.3657,211.0762,28.4445z M211.0288,34.8987c0.0066,0.0626,0.1062,0.1154,0.1632,0.1727 c0.0919-0.2022,0.1976-0.4004,0.2593-0.6115c0.0081-0.0276-0.2103-0.1213-0.4303-0.2437 C211.021,34.4926,211.0078,34.6974,211.0288,34.8987z M212.4331,46.3796c-0.1011-0.1021-0.2408-0.3091-0.2969-0.2885 c-0.2812,0.1032-0.5405,0.2659-0.8075,0.4078c-0.0844,0.1806-0.1688,0.3613-0.2533,0.5419 c0.1807-0.0859,0.3611-0.1718,0.5417-0.2578C211.8892,46.6486,212.1611,46.514,212.4331,46.3796z M212.4556,45.243 c-0.0518-0.0565-0.1035-0.1129-0.1553-0.1693c-0.0564,0.0518-0.1128,0.1036-0.1692,0.1553c0.0786,0.0576,0.1572,0.1151,0.236,0.1727 C212.3965,45.3488,212.426,45.2958,212.4556,45.243z M214.1311,25.6508c-0.0518-0.0565-0.1036-0.1129-0.1554-0.1693 c-0.0575,0.0787-0.1151,0.1573-0.1727,0.2361c0.053,0.0294,0.1058,0.059,0.1587,0.0884 C214.0181,25.7543,214.0746,25.7025,214.1311,25.6508z M214.5615,31.5233c-0.0542,0-0.1084,0-0.1663,0 c-0.0256,0.0461-0.0905,0.1118-0.0769,0.149c0.0243,0.0665,0.0957,0.1157,0.1476,0.1721 C214.4978,31.7374,214.5295,31.6304,214.5615,31.5233z M223.0443,28.9455c0.0243,0.0665,0.0958,0.1157,0.1476,0.1721 c0.0319-0.1071,0.0637-0.2141,0.0955-0.3211c-0.0541,0-0.1082,0-0.1661,0C223.0955,28.8425,223.0308,28.9083,223.0443,28.9455z M220.3175,26.2186c0.0243,0.0665,0.0958,0.1157,0.1475,0.1721c0.0319-0.1071,0.0637-0.2141,0.0956-0.3211 c-0.0542,0-0.1083,0-0.1663,0C220.3687,26.1157,220.304,26.1815,220.3175,26.2186z M220.2312,37.2713 c-0.0122,0.1494,0.1045,0.3093,0.1666,0.4648c0.1128-0.0891,0.2257-0.1782,0.3392-0.268c-0.0635-0.1547-0.127-0.3093-0.1904-0.464 C220.4351,37.0927,220.239,37.1743,220.2312,37.2713z M219.7721,19.6741c0.0243,0.0665,0.0958,0.1157,0.1476,0.1721 c0.0317-0.1071,0.0637-0.2141,0.0955-0.3211c-0.0541,0-0.1082,0-0.1661,0C219.8232,19.5712,219.7585,19.637,219.7721,19.6741z M217.6208,39.9567c-0.1765-0.0945-0.353-0.1891-0.5294-0.2837c0.0713,0.1813,0.1425,0.3626,0.2139,0.5438 c0.026,0.0928,0.0336,0.1872,0.0226,0.283c-0.0845,0.1807-0.1689,0.3613-0.2533,0.5419c0.1805-0.0859,0.3612-0.1718,0.5416-0.2578 C217.6177,40.5082,217.6193,40.2324,217.6208,39.9567z M217.9067,34.3612c-0.1256-0.0856-0.2512-0.1711-0.3776-0.2571 c-0.1355,0.0606-0.271,0.1212-0.4065,0.1817c0.1393,0.1158,0.2649,0.2863,0.4235,0.3264 C217.6392,34.6358,217.7847,34.4518,217.9067,34.3612z M218.0016,28.4901c-0.2415-0.1752-0.4152-0.3936-0.5356-0.3674 c-0.1952,0.0423-0.4392,0.2155-0.5018,0.3907c-0.0424,0.1186,0.1909,0.3358,0.3009,0.5089 C217.4597,28.8815,217.6545,28.7408,218.0016,28.4901z M219.7548,32.1718c0.0066,0.0626,0.1062,0.1154,0.1632,0.1727 c0.092-0.2022,0.1976-0.4004,0.2593-0.6115c0.0081-0.0276-0.2103-0.1213-0.4304-0.2436 C219.7468,31.7657,219.7336,31.9705,219.7548,32.1718z M221.1444,42.9662c-0.1805,0.0859-0.3611,0.1718-0.5416,0.2578 c-0.272,0.1345-0.5439,0.269-0.8159,0.4034c0.1011,0.1021,0.2407,0.309,0.2969,0.2885c0.2811-0.1031,0.5404-0.2659,0.8074-0.4077 C220.9756,43.3276,221.0601,43.1469,221.1444,42.9662z M222.4519,16.9089c0.1069,0.0318,0.214,0.0637,0.321,0.0955 c0-0.0541,0-0.1082,0-0.1662c-0.046-0.0256-0.1118-0.0905-0.1489-0.0768C222.5575,16.7856,222.5083,16.8572,222.4519,16.9089z M223.4023,40.3758c-0.0518-0.0564-0.1035-0.1129-0.1553-0.1693c-0.0576,0.0787-0.1151,0.1574-0.1726,0.2361 c0.0527,0.0295,0.1057,0.059,0.1586,0.0884C223.2896,40.4793,223.3459,40.4276,223.4023,40.3758z M223.7864,34.4556 c-0.1335-0.1539-0.2671-0.3078-0.431-0.4968c-0.2832,0.1247-0.5098,0.2244-0.7362,0.3242c0.1533,0.1362,0.2994,0.3728,0.4619,0.3846 C223.3098,34.6842,223.5508,34.5344,223.7864,34.4556z M224.9236,41.8854c-0.0542,0-0.1084,0-0.1663,0 c-0.0256,0.046-0.0905,0.1118-0.0769,0.149c0.0243,0.0665,0.0958,0.1157,0.1476,0.1721 C224.8599,42.0995,224.8916,41.9925,224.9236,41.8854z M225.4689,14.6168c-0.0541,0-0.1083,0-0.1661,0 c-0.0256,0.046-0.0906,0.1118-0.0769,0.149c0.0242,0.0665,0.0957,0.1157,0.1475,0.1721 C225.4053,14.8309,225.437,14.7239,225.4689,14.6168z M226.1292,37.6489c-0.0518-0.0564-0.1035-0.1129-0.1553-0.1693 c-0.0575,0.0787-0.115,0.1574-0.1726,0.2361c0.0529,0.0295,0.1057,0.0589,0.1587,0.0884 C226.0164,37.7524,226.0728,37.7007,226.1292,37.6489z M226.5906,31.5633c-0.046-0.0256-0.1118-0.0904-0.1489-0.0768 c-0.0665,0.0243-0.1157,0.0958-0.1721,0.1476c0.1069,0.0318,0.214,0.0637,0.321,0.0955 C226.5906,31.6754,226.5906,31.6213,226.5906,31.5633z M237.7223,22.9081c0.1071,0.0319,0.214,0.0637,0.3212,0.0955 c0-0.0541,0-0.1082,0-0.1662c-0.0461-0.0256-0.1118-0.0904-0.149-0.0768C237.8279,22.7848,237.7788,22.8563,237.7223,22.9081z M231.7644,34.8669c0.0787,0.0575,0.1575,0.1151,0.2361,0.1726c0.0295-0.0529,0.0591-0.1058,0.0884-0.1587 c-0.0518-0.0564-0.1035-0.1129-0.1553-0.1693C231.8772,34.7634,231.8208,34.8151,231.7644,34.8669z M229.2865,34.7956 c-0.0541,0-0.1083,0-0.1661,0c-0.0258,0.046-0.0906,0.1118-0.0769,0.149c0.0242,0.0665,0.0957,0.1157,0.1475,0.1721 C229.2228,35.0096,229.2546,34.9026,229.2865,34.7956z M229.9468,40.9211c-0.0518-0.0564-0.1035-0.1129-0.1553-0.1692 c-0.0576,0.0787-0.115,0.1573-0.1726,0.236c0.0529,0.0295,0.1057,0.059,0.1587,0.0884 C229.834,41.0247,229.8904,40.9729,229.9468,40.9211z M232.1747,40.8208c-0.0604-0.2117-0.1654-0.4106-0.2565-0.6136 c-0.0575,0.0565-0.1581,0.1085-0.1646,0.1703c-0.021,0.2025-0.0078,0.4086-0.0078,0.6841 C231.9637,40.9415,232.1826,40.8487,232.1747,40.8208z M235.3611,26.7003c-0.0518-0.0565-0.1035-0.1129-0.1553-0.1694 c-0.0564,0.0518-0.1128,0.1036-0.1692,0.1554c0.0787,0.0576,0.1575,0.1151,0.2361,0.1727 C235.3022,26.8061,235.3318,26.7532,235.3611,26.7003z M238.0521,40.2404c-0.1807,0.0854-0.3613,0.1709-0.5419,0.2565 c-0.1829,0.1828-0.366,0.3655-0.5491,0.5483c-0.0844,0.1807-0.1687,0.3613-0.2532,0.5419c0.1805-0.0859,0.3611-0.1718,0.5416-0.2578 c0.1823-0.1823,0.3644-0.3646,0.5466-0.5469C237.8816,40.6017,237.9668,40.4211,238.0521,40.2404z M238.0533,35.0403 c-0.0859-0.1805-0.1718-0.3611-0.2577-0.5417c-0.1815-0.085-0.363-0.17-0.5444-0.2549c0.0867,0.1811,0.1735,0.3622,0.2603,0.5434 C237.6921,34.8715,237.8727,34.9559,238.0533,35.0403z M240.2695,43.6069c-0.0518-0.0565-0.1035-0.1129-0.1553-0.1693 c-0.0564,0.0518-0.1128,0.1036-0.1692,0.1553c0.0786,0.0576,0.1573,0.1151,0.2361,0.1726 C240.2106,43.7126,240.24,43.6597,240.2695,43.6069z M241.2847,37.5225c-0.0541,0-0.1082,0-0.1663,0 c-0.0256,0.046-0.0903,0.1118-0.0768,0.149c0.0243,0.0665,0.0958,0.1157,0.1476,0.1721 C241.2209,37.7365,241.2529,37.6295,241.2847,37.5225z M241.8611,32.1087c-0.0461-0.0256-0.1118-0.0905-0.149-0.0768 c-0.0665,0.0242-0.1157,0.0958-0.1721,0.1475c0.1071,0.0319,0.214,0.0637,0.3212,0.0955 C241.8611,32.2208,241.8611,32.1666,241.8611,32.1087z M243.4971,40.2893c-0.0459-0.0256-0.1118-0.0905-0.1489-0.077 c-0.0664,0.0243-0.1157,0.0959-0.1721,0.1476c0.1071,0.0319,0.2141,0.0637,0.321,0.0956 C243.4971,40.4014,243.4971,40.3472,243.4971,40.2893z M244.0525,29.0412c-0.0859-0.1806-0.1719-0.3611-0.2578-0.5417 c-0.1814-0.085-0.3629-0.17-0.5444-0.2549c0.0868,0.1811,0.1736,0.3622,0.2603,0.5433 C243.6912,28.8723,243.8718,28.9567,244.0525,29.0412z M249.5802,40.3757c-0.0518-0.0564-0.1035-0.1128-0.1554-0.1692 c-0.0575,0.0787-0.115,0.1573-0.1726,0.2361c0.053,0.0295,0.1058,0.0589,0.1587,0.0884 C249.4673,40.4792,249.5238,40.4275,249.5802,40.3757z M294.7312,42.9761c-0.0542,0-0.1083,0-0.1663,0 c-0.0256,0.0461-0.0903,0.1119-0.0769,0.149c0.0244,0.0665,0.0959,0.1157,0.1477,0.1722 C294.6675,43.1902,294.6993,43.0832,294.7312,42.9761z M294.7622,37.5624c-0.0461-0.0257-0.1119-0.0905-0.1492-0.0769 c-0.0664,0.0243-0.1156,0.0958-0.172,0.1476c0.1071,0.0318,0.214,0.0637,0.3212,0.0955 C294.7622,37.6745,294.7622,37.6204,294.7622,37.5624z M295.3915,26.7415c-0.0518-0.0565-0.1035-0.1128-0.1554-0.1693 c-0.0574,0.0787-0.115,0.1574-0.1726,0.2361c0.053,0.0294,0.1058,0.0589,0.1587,0.0884 C295.2786,26.845,295.335,26.7932,295.3915,26.7415z M300.8059,32.1541c-0.0518-0.0565-0.1035-0.1129-0.1553-0.1693 c-0.0564,0.0518-0.1129,0.1036-0.1693,0.1553c0.0787,0.0576,0.1573,0.1151,0.2361,0.1726 C300.7468,32.2598,300.7764,32.2069,300.8059,32.1541z M308.4302,32.0067c-0.2761,0-0.481-0.0133-0.6821,0.0078 c-0.0626,0.0066-0.1155,0.1063-0.1729,0.1633c0.2023,0.092,0.4004,0.1976,0.6116,0.2592 C308.2144,32.445,308.308,32.2267,308.4302,32.0067z M310.0771,22.8827c-0.0518-0.0564-0.1035-0.1129-0.1553-0.1693 c-0.0564,0.0518-0.1128,0.1036-0.1692,0.1554c0.0786,0.0576,0.1575,0.1151,0.2361,0.1726 C310.0182,22.9885,310.0476,22.9356,310.0771,22.8827z M310.6619,29.4683c-0.0518-0.0565-0.1035-0.1128-0.1553-0.1693 c-0.0576,0.0787-0.1151,0.1574-0.1726,0.2361c0.0529,0.0295,0.1057,0.059,0.1587,0.0884 C310.5491,29.5718,310.6055,29.52,310.6619,29.4683z M320.3947,43.5615c-0.046-0.0256-0.1119-0.0904-0.149-0.0768 c-0.0664,0.0242-0.1157,0.0958-0.1721,0.1476c0.1071,0.0318,0.2141,0.0636,0.3212,0.0955 C320.3947,43.6736,320.3947,43.6194,320.3947,43.5615z M324.1813,15.7075c-0.0541,0-0.1083,0-0.1661,0 c-0.0256,0.0461-0.0906,0.1119-0.0769,0.149c0.0242,0.0665,0.0957,0.1157,0.1476,0.1722 C324.1177,15.9216,324.1494,15.8146,324.1813,15.7075z M327.0231,30.5591c-0.0518-0.0564-0.1036-0.1129-0.1554-0.1693 c-0.0574,0.0787-0.115,0.1574-0.1726,0.2361c0.053,0.0295,0.1058,0.059,0.1587,0.0884 C326.9102,30.6626,326.9667,30.6108,327.0231,30.5591z M329.2046,46.3749c-0.0518-0.0565-0.1035-0.1129-0.1553-0.1693 c-0.0576,0.0787-0.1152,0.1573-0.1726,0.2361c0.0527,0.0295,0.1057,0.059,0.1587,0.0884 C329.0918,46.4784,329.1482,46.4266,329.2046,46.3749z M329.666,27.7457c-0.0461-0.0256-0.1118-0.0904-0.149-0.0769 c-0.0665,0.0243-0.1156,0.0959-0.1721,0.1476c0.1071,0.0318,0.214,0.0637,0.3212,0.0955 C329.666,27.8578,329.666,27.8036,329.666,27.7457z M332.4375,24.5188c-0.0518-0.0564-0.1035-0.1129-0.1553-0.1693 c-0.0564,0.0518-0.1129,0.1036-0.1693,0.1553c0.0787,0.0576,0.1573,0.1151,0.2361,0.1726 C332.3784,24.6246,332.408,24.5717,332.4375,24.5188z M333.5676,42.0119c-0.0519-0.0565-0.1036-0.1129-0.1555-0.1693 c-0.0575,0.0787-0.115,0.1574-0.1726,0.2361c0.053,0.0295,0.106,0.059,0.1587,0.0884 C333.4546,42.1154,333.5111,42.0636,333.5676,42.0119z M334.6189,46.3337c-0.0518-0.0564-0.1035-0.1129-0.1553-0.1693 c-0.0564,0.0518-0.1128,0.1036-0.1692,0.1553c0.0786,0.0575,0.1575,0.1151,0.2361,0.1726 C334.5601,46.4395,334.5895,46.3866,334.6189,46.3337z M335.1643,33.2448c-0.0518-0.0564-0.1035-0.1129-0.1553-0.1693 c-0.0564,0.0518-0.1128,0.1035-0.1692,0.1553c0.0786,0.0576,0.1573,0.1151,0.2361,0.1726 C335.1053,33.3506,335.1348,33.2977,335.1643,33.2448z M338.3918,42.4708c-0.0459-0.0256-0.1118-0.0905-0.1489-0.0769 c-0.0664,0.0243-0.1157,0.0958-0.1721,0.1476c0.1071,0.0319,0.2141,0.0637,0.321,0.0955 C338.3918,42.5828,338.3918,42.5287,338.3918,42.4708z M338.3918,36.4717c-0.0459-0.0257-0.1118-0.0904-0.1489-0.0768 c-0.0664,0.0242-0.1157,0.0958-0.1721,0.1475c0.1071,0.0319,0.2141,0.0637,0.321,0.0955 C338.3918,36.5837,338.3918,36.5296,338.3918,36.4717z M338.4365,31.0633c-0.0518-0.0565-0.1035-0.1129-0.1553-0.1693 c-0.0564,0.0518-0.1128,0.1035-0.1692,0.1553c0.0786,0.0576,0.1573,0.1151,0.2361,0.1727 C338.3777,31.1691,338.4071,31.1162,338.4365,31.0633z M343.8457,42.4708c-0.0461-0.0256-0.1118-0.0904-0.1492-0.0768 c-0.0664,0.0242-0.1156,0.0958-0.172,0.1475c0.1071,0.0319,0.214,0.0637,0.3212,0.0955 C343.8457,42.5828,343.8457,42.5287,343.8457,42.4708z M344.4355,31.0633c-0.0518-0.0565-0.1035-0.1129-0.1553-0.1693 c-0.0564,0.0518-0.1128,0.1036-0.1692,0.1553c0.0787,0.0576,0.1575,0.1151,0.2361,0.1727 C344.3767,31.1691,344.4062,31.1161,344.4355,31.0633z M347.1625,34.3355c-0.0518-0.0565-0.1035-0.1129-0.1553-0.1693 c-0.0564,0.0518-0.1128,0.1036-0.1693,0.1554c0.0789,0.0576,0.1575,0.1151,0.2362,0.1726 C347.1035,34.4413,347.1331,34.3884,347.1625,34.3355z M347.7473,46.3749c-0.0518-0.0565-0.1036-0.1129-0.1554-0.1693 c-0.0575,0.0787-0.1151,0.1574-0.1727,0.2361c0.053,0.0295,0.1058,0.059,0.1587,0.0884 C347.6343,46.4784,347.6908,46.4266,347.7473,46.3749z M222.1863,2.1088c0.0316,0.1265,0.0632,0.2531,0.095,0.3796 c0.6283-0.2669,1.2769-0.4974,1.8711-0.8259c0.1528-0.0845,0.2288-0.5042,0.1672-0.7211c-0.053-0.1873-0.3638-0.4469-0.5394-0.4315 c-1.8099,0.1585-3.6196,0.3385-5.418,0.5932c-0.2421,0.0343-0.421,0.5134-0.6293,0.7866c0.281,0.1452,0.5643,0.4182,0.8428,0.4135 C219.78,2.2827,220.9829,2.181,222.1863,2.1088z M309.6202,1.7894c1.2007-0.0938,2.5902-0.1867,3.9747-0.3271 c0.2134-0.0217,0.4045-0.2621,0.606-0.4013c-0.2067-0.1615-0.4194-0.47-0.619-0.4618c-2.0475,0.0847-4.0944,0.2007-6.1378,0.356 c-0.533,0.0405-1.0532,0.2471-1.5791,0.3774c0.5647,0.1523,1.1216,0.3679,1.6965,0.4396 C308.175,1.8487,308.8057,1.7894,309.6202,1.7894z M69.6616,1.442c1.4398,0.0221,2.9043,0.016,4.3013,0.3027 c0.418,0.0858,0.7225,0.7169,1.2438,0.1493c0.1776-0.1935,0.3232-0.4163,0.4835-0.6258c-0.4208-0.2277-0.8193-0.5408-1.2688-0.6576 c-0.4001-0.104-0.8602-0.019-1.2878,0.0325c-1.0565,0.1271-2.1096,0.2828-3.1641,0.427c-0.0049-0.0374-0.01-0.0747-0.015-0.1121 c-0.6295,0-1.267-0.0607-1.8854,0.0224c-0.3829,0.0515-0.7366,0.3212-1.1034,0.493c0.3826,0.1049,0.7701,0.3096,1.1464,0.2906 C68.6331,1.7378,69.1473,1.4341,69.6616,1.442z M174.5172,1.7847c1.2112,0.1926,2.4259,0.4693,3.6417,0.4808 c0.6025,0.0057,1.2096-0.4922,2.2585-0.9604c-0.749-0.2143-0.9921-0.2271-1.167-0.3427c-1.6472-1.0886-3.2531-0.2878-4.8628,0.1017 c-0.1019,0.0247-0.2288,0.2786-0.2053,0.3989C174.2073,1.5909,174.3851,1.7636,174.5172,1.7847z M295.844,1.716 c0.7883,0.0098,1.5776-0.0685,2.3667-0.1142c-0.0002,0.0511-0.0006,0.1022-0.001,0.1533c0.9775,0,1.958,0.043,2.9304-0.0268 c0.2844-0.0204,0.5459-0.3621,0.8179-0.5565c-0.2397-0.1049-0.4738-0.2839-0.7201-0.3029c-1.8019-0.1386-3.6056-0.2681-5.411-0.3266 c-0.1835-0.006-0.4253,0.459-0.542,0.7454C295.2588,1.3514,295.6449,1.7135,295.844,1.716z M93.8315,1.7194 c2.0596-0.1127,4.1187-0.241,6.1759-0.3903c0.2242-0.0163,0.4374-0.1857,0.6556-0.2841c-0.2061-0.1605-0.4076-0.4529-0.6187-0.46 c-1.2949-0.0431-2.5918-0.0216-3.8882-0.0216c-0.0306-0.0598-0.0613-0.1197-0.092-0.1795 c-0.8151,0.2204-1.6338,0.4287-2.4404,0.6761c-0.1033,0.0317-0.2314,0.3033-0.1919,0.3994 C93.4834,1.584,93.696,1.7268,93.8315,1.7194z M204.3359,2.0378c0.3943-0.0458,0.7395-0.514,1.1072-0.7887 c-0.5037-0.2643-1.042-0.7989-1.5042-0.7396c-1.1313,0.1453-2.2279,0.5596-3.3381,0.8682 C201.5425,3.2369,203.0466,2.1876,204.3359,2.0378z M200.6008,1.3777c-0.001-0.002-0.0022-0.0034-0.0032-0.0054 c-0.0194-0.0455-0.0388-0.0909-0.0581-0.1364c0.0129,0.0494,0.026,0.0989,0.0391,0.1483 C200.5859,1.3822,200.5934,1.3798,200.6008,1.3777z M280.726,1.9171c-0.1071,0.1056-0.2242,0.2035-0.3152,0.3215 c-0.0261,0.0339,0.0232,0.1259,0.0378,0.1912c0.1-0.164,0.1998-0.328,0.2997-0.4921c1.0667-0.5806,2.1261-0.789,3.3406-0.3287 c0.6343,0.2404,1.4075,0.1656,2.114,0.1373c0.2668-0.0107,0.5227-0.2914,0.7837-0.4491c-0.2231-0.087-0.4402-0.2267-0.6702-0.2527 c-1.8337-0.2073-3.667-0.4543-5.5076-0.5457c-0.5088-0.0252-1.0415,0.4327-1.5632,0.6691c0.4825,0.1606,0.967,0.316,1.4438,0.4917 C280.728,1.6738,280.7151,1.828,280.726,1.9171z M432.5497,1.6884c0.6718,0.2372,1.5292-0.032,2.2983-0.1102 c0.1133-0.0115,0.2755-0.2348,0.2865-0.3704c0.0117-0.1462-0.1079-0.4219-0.2047-0.4385c-0.5924-0.1011-1.2048-0.2455-1.7911-0.1854 c-1.0587,0.1085-2.1038,0.3505-3.1543,0.5367c-0.0098-0.066-0.0193-0.1319-0.0288-0.1979c-0.7129,0-1.4285-0.0345-2.1367,0.0222 c-0.1975,0.0159-0.3733,0.3016-0.5591,0.4635c0.1948,0.1201,0.4258,0.3787,0.5791,0.3388 C429.4077,1.3391,430.9303,1.1165,432.5497,1.6884z M134.9789,1.6455c1.5734,0.0686,3.1481,0.1279,4.7225,0.1287 c0.1952,0.0001,0.3906-0.3381,0.5859-0.5195c-0.1567-0.1004-0.3047-0.2679-0.4718-0.29c-0.8788-0.1164-1.7625-0.196-2.6124-0.2851 c-0.6959,0.0506-1.3785,0.0812-2.0544,0.1661c-0.1288,0.0162-0.2896,0.2318-0.3269,0.3823 C134.7908,1.3527,134.9144,1.6427,134.9789,1.6455z M110.2308,1.9741c0.373-0.2045,0.8563-0.2048,1.2373-0.3998 c0.152-0.0778,0.2184-0.4296,0.2188-0.6569c0.0002-0.1375-0.1782-0.3596-0.3158-0.3964c-0.3372-0.0903-0.6973-0.0951-0.7346-0.0992 c-0.4937,0-0.6967-0.057-0.8436,0.0096c-0.7408,0.3356-1.4672,0.7034-2.1986,1.0599C108.439,1.8247,109.197,2.541,110.2308,1.9741z M415.9399,2.0104c0.9761-0.2738,1.9175-0.5117,2.8372-0.8159c0.2076-0.0688,0.3391-0.3679,0.5057-0.561 c-0.2371-0.0695-0.4857-0.2237-0.7092-0.1934c-0.8755,0.1186-1.7479,0.4368-2.6121,0.407c-0.7214-0.025-1.552-0.8733-1.8519,0.4351 C414.0881,1.3755,415.2441,1.7387,415.9399,2.0104z M154.5261,1.8107c0.1667,0.0432,0.3584-0.01,0.5386-0.0188 c0.0056,0.0428,0.0112,0.0857,0.0168,0.1285c0.8787-0.2076,1.7571-0.4152,2.6356-0.6229c-0.9218-0.171-1.8434-0.3426-2.7653-0.5125 c-0.1692-0.0312-0.3496-0.1057-0.5078-0.0743c-0.7317,0.145-1.4573,0.3203-2.1848,0.4848 C152.7122,2.5017,153.7683,1.6143,154.5261,1.8107z M161.5198,1.7096c2.0519-0.0943,4.1021-0.2259,6.1527-0.3502 c-2.0001-0.9968-4.1163-0.2849-6.1786-0.3557c-0.1321-0.0045-0.2703,0.167-0.4056,0.2567 C161.2324,1.4172,161.3831,1.7159,161.5198,1.7096z M181.4202,2.1594c1.4426,0.0093,2.8854,0.0331,4.3274,0.0093 c0.1774-0.0029,0.3505-0.2612,0.5256-0.4011c-0.2004-0.1581-0.3989-0.3189-0.6016-0.474c-1.4177-1.0848-2.8002-0.2724-4.1912,0.0795 c-0.0012,0.0001-0.0023,0.0002-0.0035,0.0002c0,0.0009,0,0.0016,0,0.0025C181.458,1.637,181.4391,1.8981,181.4202,2.1594z M207.1505,1.398c-0.0016-0.0146-0.0083-0.023-0.0095-0.0379c-0.0375-0.0028-0.0748-0.0056-0.1122-0.0083 c0.0156,0.023,0.0312,0.046,0.0469,0.069C207.1007,1.4137,207.1255,1.4052,207.1505,1.398z M208.4193,2.3045 c0.9949-0.2392,1.9623-0.5925,2.9401-0.9028c-0.4473-0.2881-0.9192-0.8048-1.3306-0.7605 c-0.9753,0.1053-1.9214,0.4804-2.8783,0.7568C207.2297,2.17,207.7312,2.4699,208.4193,2.3045z M389.9563,1.3645 c0.2604-0.0333,0.5159-0.1039,0.9424-0.1923c-0.3425-0.1664-0.5323-0.2916-0.741-0.3544c-1.3051-0.3936-2.6187-0.6991-3.917,0.0078 c-0.2874,0.1564-0.532,0.3911-0.7961,0.5898c0.3782,0.1212,0.7644,0.3651,1.1331,0.3408 C387.7076,1.6818,388.8313,1.5086,389.9563,1.3645z M56.098,1.7838c0.516,0,0.8268,0.0884,1.0455-0.0161 c0.7437-0.3553,1.4548-0.7787,2.1783-1.1761c-0.6708,0.1106-1.338,0.2557-2.0132,0.3223c-0.694,0.0686-1.3978,0.0356-2.0919,0.1017 c-0.2021,0.0193-0.3865,0.2257-0.579,0.3464c0.2146,0.1019,0.42,0.2418,0.646,0.2968C55.6288,1.7427,55.988,1.7681,56.098,1.7838z M349.7031,1.6375c0.3003-0.1541,0.3816-0.2333,0.46-0.2303c0.8076,0.0306,1.724,0.5384,2.2687-0.5391 c-0.8512-0.0523-1.702-0.1339-2.5537-0.1425c-0.3448-0.0035-0.7006,0.1263-1.0333,0.2453 c-0.2031,0.0726-0.3723,0.2402-0.5566,0.3651c0.2013,0.1326,0.3932,0.355,0.6062,0.3773 C349.2333,1.7489,349.5864,1.6513,349.7031,1.6375z M405.5243,1.7917c-0.0001-0.037-0.0001-0.0741-0.0001-0.1111 c0.6182,0,1.2397,0.0334,1.8511-0.0308c0.1105-0.0115,0.2791-0.4454,0.2366-0.645c-0.0378-0.1772-0.3658-0.4534-0.5068-0.4219 c-0.9414,0.2103-1.8672,0.491-2.7976,0.7501c-0.2478,0.069-0.494,0.143-0.741,0.2147c0.2952,0.0813,0.5861,0.1994,0.8865,0.2343 C404.8057,1.8231,405.1667,1.7917,405.5243,1.7917z M189.5933,1.716c0.4236-0.0898,0.8726-0.0662,1.2913-0.1696 c0.2253-0.0557,0.4102-0.2759,0.605-0.4159c-0.0796-0.1479-0.1094-0.2326-0.1628-0.2977c-0.5409-0.6591-2.2207-0.5717-2.5394,0.176 c-0.1241,0.2914,0.0157,0.6954,0.0353,1.0481C189.0786,1.9396,189.3243,1.7731,189.5933,1.716z M167.8721,1.3797 c-0.0042-0.0114-0.0084-0.02-0.0125-0.0316c-0.0624,0.0038-0.1248,0.0076-0.1871,0.0114c0.0468,0.0233,0.0941,0.0353,0.1407,0.0605 C167.8323,1.406,167.8527,1.3933,167.8721,1.3797z M170.0757,1.5122c0.1816-0.1368,0.3623-0.6261,0.3051-0.6752 c-0.6473-0.5552-1.2992-0.537-1.917,0.0976c-0.17,0.1747-0.3885,0.3026-0.5917,0.4451 C168.4779,3.0789,169.3169,2.0836,170.0757,1.5122z M1.0133,13.7404c-0.303,0.3198-0.61,0.6586-0.8109,1.0446 C0.0516,15.0744,0.0615,15.4475,0,15.7834c0.3896-0.1124,0.8381-0.1405,1.153-0.3601c0.3361-0.2343,0.5461-0.6494,0.816-0.9918 c-0.2078-0.3334-0.3091-0.5812-0.4878-0.7442C1.401,13.614,1.1008,13.6481,1.0133,13.7404z M369.0581,1.3655 c0.1666-0.0388,0.3154-0.1539,0.5118-0.2543c-0.2377-0.1203-0.4423-0.2939-0.6652-0.3221 c-0.4773-0.0602-0.9695-0.0966-1.4456-0.0468c-0.5127,0.0535-1.0142,0.2167-1.5204,0.3322 c0.5421,0.1958,1.0728,0.4944,1.6298,0.5563C368.05,1.6842,368.5642,1.4804,369.0581,1.3655z M239.2087,1.1899 c0.1177-0.0422,0.2092-0.2815,0.2197-0.4366c0.0043-0.0618-0.2622-0.2242-0.3737-0.199c-1.1322,0.2554-2.2584,0.5377-3.3861,0.8136 c0.7108,0.0788,1.4221,0.1927,2.1323,0.1879C238.2729,1.5526,238.752,1.3538,239.2087,1.1899z M398.4114,1.3416 c0.3281,0.0073,0.6461,0.2307,0.9805,0.2963c0.1324,0.026,0.297-0.1118,0.4469-0.175c-0.139-0.1692-0.2501-0.4375-0.4232-0.4864 c-0.3359-0.0948-0.7065-0.0663-1.4353-0.1126c-0.2101,0.0691-0.7568,0.2489-1.3035,0.4287 C397.2363,2.3648,397.8334,1.3287,398.4114,1.3416z M127.7111,1.0789c-0.2684-0.199-0.5996-0.6116-0.7926-0.5548 c-0.4766,0.1403-0.8898,0.4959-1.3284,0.765c0.3235,0.2058,0.6472,0.4117,1.1396,0.7248 C127.093,1.6677,127.402,1.3733,127.7111,1.0789z M382.0249,1.4039c0.5852-0.0997,1.144-0.356,1.7131-0.5507 c-0.5696-0.139-1.1475-0.3871-1.7026-0.3441c-0.4335,0.0336-0.8357,0.4709-1.2517,0.7285 C381.1989,1.3013,381.6321,1.4708,382.0249,1.4039z M254.9285,1.5186c0.0483-0.0585-0.2922-0.4388-0.4529-0.6702 c-0.4302,0.3875-0.8707,0.7648-1.2739,1.1786c-0.0393,0.0403,0.1528,0.3059,0.3982,0.7723 C254.1716,2.2699,254.5903,1.9276,254.9285,1.5186z M234.866,1.3629c-0.3395-0.4523-0.5563-1.3275-1.3256-0.649 c-0.3716,0.3278-0.4288,1.0119-0.6285,1.5346c0.51-0.2468,1.0181-0.4977,1.5312-0.7378 C234.5776,1.4476,234.7236,1.4091,234.866,1.3629z M144.3855,1.0565c-0.349-0.2314-0.6981-0.4629-1.0859-0.7199 c-0.5125,0.2539-0.9474,0.4694-1.3823,0.6849c0.4465,0.2377,0.8823,0.6317,1.3429,0.663 C143.6194,1.709,144.0093,1.2826,144.3855,1.0565z M87.9426,1.7081c0.1426-0.0388,0.2516-0.2016,0.3757-0.3085 c-0.1494-0.145-0.2754-0.3538-0.4539-0.4192c-0.2378-0.0871-0.5166-0.0628-1.0365-0.1097 c-0.1477,0.1139-0.4484,0.3458-0.7489,0.5777c0.3616,0.1137,0.7168,0.2637,1.087,0.3286 C87.4152,1.8205,87.694,1.7756,87.9426,1.7081z M114.8379,1.6578c0.402-0.0463,0.7751-0.343,1.2537-0.5755 c-0.3242-0.0661-0.5717-0.1707-0.8109-0.1545c-0.5768,0.0392-1.1495,0.135-1.724,0.208c0.041,0.0765,0.0662,0.2025,0.1257,0.2217 C114.0645,1.4813,114.468,1.7004,114.8379,1.6578z M121.998,1.3015c0.3035,0,0.4879,0.0313,0.657-0.0063 c0.3707-0.0825,0.7336-0.2,1.0996-0.3031c-0.3887-0.1243-0.7802-0.3543-1.1655-0.3448c-0.4236,0.0104-0.845,0.2318-1.2598,0.382 c-0.1338,0.0485-0.2437,0.1629-0.3643,0.2471c0.1307,0.0696,0.2684,0.2073,0.3909,0.1948 C121.614,1.4449,121.864,1.34,121.998,1.3015z M269.301,0.7302c-0.5787,0.0823-1.1895,0.0815-1.7207,0.2866 c-0.2051,0.0792-0.2664,0.5306-0.3767,0.8555c0.6359-0.1913,1.2783-0.3655,1.8981-0.5996 C269.2196,1.2281,269.2371,0.9178,269.301,0.7302z M339.7207,0.9472c-0.2871-0.1936-0.5742-0.3872-0.9673-0.6523 c-0.384,0.2839-0.7263,0.537-1.0686,0.79c0.3662,0.1886,0.739,0.5341,1.0969,0.5192 C339.1033,1.5908,339.4083,1.1817,339.7207,0.9472z M132.5701,1.1736c-0.457-0.3315-0.7495-0.6846-0.9148-0.6327 c-0.2944,0.0925-0.6542,0.3984-0.7152,0.675c-0.0468,0.212,0.3243,0.5161,0.5096,0.7792 C131.752,1.7735,132.0542,1.5518,132.5701,1.1736z M264.3025,1.4299c-0.0627,0.0071-0.1248,0.013-0.1677-0.0128 c-1.0199-0.6106-1.3521,0.2793-1.8167,0.8436c-0.0817,0.0991-0.0422,0.298-0.0587,0.4508c0.5057-0.2759,1.0199-0.538,1.5135-0.834 C263.9685,1.7602,264.1304,1.5863,264.3025,1.4299z M357.0496,1.4078c-0.1819-0.1685-0.3635-0.337-0.5701-0.5284 c-0.5099,0.2239-0.8647,0.3797-1.2197,0.5355c0.2896,0.1228,0.5806,0.3457,0.8679,0.3412 C356.4368,1.7513,356.7424,1.533,357.0496,1.4078z M374.3259,1.1675c-0.3654-0.1287-0.7307-0.2575-0.8069-0.2843 c-0.7395,0-1.1531,0-1.5668,0c0.2618,0.186,0.5195,0.5194,0.7863,0.5268C373.265,1.4247,373.7965,1.2588,374.3259,1.1675z M79.5225,1.4077c-0.0024-0.0025-0.0048-0.0035-0.0073-0.006l-0.0776-0.0992l0.0293,0.1481 C79.4852,1.4362,79.5046,1.4235,79.5225,1.4077z M81.1636,1.0245c0.0691-0.0905-0.0061-0.2912-0.0146-0.4409 c-0.4928,0.2356-0.9868,0.469-1.4775,0.709c-0.0552,0.027-0.1011,0.073-0.1489,0.1151C80.2625,2.1339,80.7294,1.5933,81.1636,1.0245 z M275.1541,1.1344c0.0171-0.192-0.1854-0.4036-0.2893-0.6064c-0.3125,0.2142-0.625,0.4284-0.9376,0.6426 c0.1528,0.1816,0.3055,0.3633,0.8735,1.0383C274.9562,1.7648,275.1252,1.4559,275.1541,1.1344z M194.5151,1.415 c-0.0701-0.0234-0.1401-0.0506-0.2108-0.0528c-0.4628-0.0143-0.9269-0.0334-1.3878-0.0062 c-0.0531,0.0032-0.0898,0.2839-0.1343,0.4361c0.4594-0.0139,0.9219-0.0016,1.376-0.0571 C194.2883,1.7191,194.3979,1.5353,194.5151,1.415z M257.7441,2.7596c0.2266-0.0518,0.4197-0.2498,1.0326-0.6456 c-0.869,0-1.2013-0.0505-1.5016,0.0255c-0.1157,0.0293-0.1588,0.3459-0.235,0.5316C257.2761,2.7067,257.5276,2.8091,257.7441,2.7596 z M319.4292,0.8568c-0.5142,0.047-1.0308,0.0776-1.5402,0.156c-0.1219,0.0188-0.2183,0.2043-0.3263,0.3132 c0.1885,0.085,0.4258,0.2878,0.5569,0.2336C318.5752,1.3712,318.9963,1.0997,319.4292,0.8568z M394.7864,0.7919 c-0.1531-0.139-0.3062-0.2781-0.5798-0.5267c-0.2634,0.2966-0.4668,0.5255-0.6702,0.7544c0.1482,0.0756,0.3281,0.2455,0.4382,0.2083 C394.2616,1.1309,394.5178,0.9433,394.7864,0.7919z M289.0696,1.6948c0.2147-0.0282,0.4692-0.2306,0.574-0.429 c0.0575-0.1089-0.1567-0.3615-0.5984-1.2658c-0.2446,0.6718-0.4185,0.9779-0.4415,1.295 C288.594,1.4266,288.9247,1.7138,289.0696,1.6948z M198.0234,1.4315c-0.2269-0.2615-0.3264-0.4667-0.4847-0.5347 c-0.1825-0.0785-0.4171-0.0359-0.6292-0.0459c0.0836,0.2914,0.1671,0.5829,0.2506,0.8744 C197.3818,1.6498,197.6033,1.5744,198.0234,1.4315z M129.1658,1.7295c0.2429-0.1917,0.4363-0.4462,0.6475-0.678 c-0.1824-0.1516-0.3649-0.303-0.6925-0.5752c-0.161,0.4356-0.2899,0.7355-0.3639,1.0483 C128.7476,1.5632,129.1115,1.7724,129.1658,1.7295z M118.4175,1.2641c0.2493-0.1521,0.4492-0.3849,0.6692-0.5848 c-0.1538-0.0629-0.3076-0.1258-0.5566-0.2276c-0.1874,0.2393-0.3937,0.5029-0.6,0.7665 C118.0956,1.2385,118.3059,1.3322,118.4175,1.2641z M63.8384,1.085c-0.1675-0.0408-0.3352-0.0817-0.5032-0.1209 c-0.1613,0.0441-0.3219,0.0866-0.4827,0.1291c0.1013,0.0718,0.2129,0.2144,0.3018,0.2015 C63.3877,1.261,63.6111,1.1595,63.8384,1.085z M335.3022,0.7584c-0.2576-0.0948-0.4656-0.1978-0.6838-0.2297 c-0.0452-0.0066-0.1292,0.2508-0.1951,0.3865c0.2109,0.0754,0.4185,0.1697,0.6362,0.2104 C335.1036,1.1339,335.1857,0.9401,335.3022,0.7584z M151.0796,1.6244c-0.1498-0.1885-0.2678-0.4388-0.4629-0.5392 c-0.0975-0.0501-0.4854,0.1817-0.4807,0.2725c0.011,0.2101,0.181,0.412,0.2289,0.505 C150.7739,1.7263,150.9268,1.6753,151.0796,1.6244z M91.0654,1.0254c-0.2542-0.0467-0.4762-0.1303-0.6873-0.1085 c-0.1096,0.0114-0.2,0.2094-0.2988,0.323c0.2227,0.0799,0.4418,0.1982,0.6697,0.2184C90.8264,1.4651,90.9258,1.2245,91.0654,1.0254z M243.5723,2.6707c0.2285-0.043,0.584-0.0115,0.6613-0.1432c0.1952-0.3331,0.3021-0.718,0.4291-1.0911 c-0.3135,0.2574-0.6354,0.5062-0.9272,0.7861C243.6323,2.3213,243.6239,2.5186,243.5723,2.6707z M206.6277,0.7613 c-0.1508,0.1757-0.3015,0.3514-0.4523,0.5272c0.2844,0.0211,0.569,0.0422,0.8534,0.0634 C206.8951,1.155,206.7615,0.9581,206.6277,0.7613z M104.4854,0.756c-0.0093,0.023-0.0154,0.0493-0.0237,0.0734 c0.0259-0.0042,0.0515-0.0096,0.0771-0.0142L104.4854,0.756z M103.5439,1.5452c0.2203,0.0176,0.5092-0.0032,0.6583-0.1357 c0.1443-0.1284,0.1882-0.3697,0.2594-0.5801c-0.1422,0.0231-0.2858,0.0412-0.4243,0.0782c-0.233,0.0622-0.4612,0.1426-0.6914,0.2151 C103.4114,1.2711,103.4673,1.5391,103.5439,1.5452z M45.2612,1.3154c0.024-0.0587-0.1385-0.1942-0.2626-0.3547 c-0.1522,0.1953-0.2922,0.3748-0.4323,0.5543c0.127,0.0554,0.2825,0.1844,0.3743,0.1489 C45.0769,1.6113,45.2031,1.4565,45.2612,1.3154z M215.9691,1.5293c-0.1266-0.1101-0.2531-0.2203-0.3805-0.3311 c-0.1025,0.1361-0.2019,0.268-0.3013,0.4c0.1379,0.0686,0.2747,0.1846,0.4143,0.1883 C215.7886,1.7888,215.8799,1.6208,215.9691,1.5293z M84.457,0.9897c-0.0764,0.0308-0.1252,0.1304-0.1864,0.1988 c0.1935-0.1011,0.3871-0.2021,0.5806-0.3033C84.7178,0.9151,84.582,0.9392,84.457,0.9897z M159.6294,1.1475 c-0.0745-0.0336-0.1333-0.0732-0.1974-0.0854c-0.0731-0.0141-0.151-0.0037-0.2268-0.0039c0.0616,0.0298,0.1206,0.0724,0.1857,0.0859 C159.4631,1.1591,159.5408,1.1475,159.6294,1.1475z M261.333,0.6674c-0.0688,0.0422-0.1641,0.0687-0.2006,0.1301 c-0.063,0.106-0.0894,0.2338-0.1311,0.3523c0.142-0.0259,0.2839-0.0518,0.4261-0.0781 C261.3961,0.9366,261.3645,0.802,261.333,0.6674z M271.5176,1.2332c0.0454-0.1255,0.1644-0.3013,0.1204-0.3658 c-0.0852-0.125-0.2622-0.1874-0.4017-0.2758c-0.0485,0.1524-0.1671,0.3312-0.1229,0.4489 C271.1511,1.1411,271.3757,1.1716,271.5176,1.2332z M290.9192,1.1783c0.1108,0.044,0.2869-0.0764,0.4346-0.1256 c-0.0837-0.1358-0.1414-0.3102-0.2617-0.3907c-0.0653-0.0437-0.2375,0.0728-0.3617,0.117 C290.7905,0.9191,290.8192,1.1385,290.9192,1.1783z M304.1899,1.2123c0-0.0489,0.0031-0.1595-0.0005-0.1597 c-0.1699-0.0102-0.3406-0.0107-0.511-0.0125c0.0015,0.0574,0.0004,0.1647,0.0046,0.1649 C303.8533,1.2136,304.0239,1.2123,304.1899,1.2123z M325.2617,1.511c-0.0243-0.1193-0.0981-0.2285-0.1519-0.3418 c-0.1003,0.1139-0.2007,0.2278-0.3013,0.3427c0.1105,0.0641,0.218,0.1359,0.3359,0.1808 C325.1609,1.699,325.2727,1.5644,325.2617,1.511z M376.2952,1.2072c-0.02-0.0577-0.0402-0.1152-0.0603-0.1727 c-0.137,0.051-0.2764,0.0968-0.406,0.1621c-0.0107,0.0054,0.0449,0.1428,0.0698,0.2188 C376.0309,1.3461,376.1631,1.2767,376.2952,1.2072z M231.2815,0.6986c-0.0645,0.0471-0.1366,0.0868-0.1909,0.1435 c-0.0527,0.0549-0.0872,0.1275-0.1296,0.1923c0.1331,0,0.2659,0,0.3978,0C231.3341,0.9273,231.3077,0.813,231.2815,0.6986z M225.458,0.6786c-0.0183,0.1397-0.0364,0.2794-0.0546,0.4191c0.0519-0.0626,0.1039-0.1252,0.1558-0.1878 C225.5254,0.8329,225.4917,0.7558,225.458,0.6786z M264.6895,0.8917c-0.0754,0.1353-0.151,0.2705-0.2264,0.4058 c0.0912-0.0653,0.1852-0.1278,0.2645-0.2053C264.7544,1.0657,264.7041,0.9606,264.6895,0.8917z M264.463,1.2974 c-0.038,0.0272-0.0726,0.0574-0.1097,0.0853c-0.0173,0.0151-0.0337,0.0317-0.0508,0.0472c0.0308-0.0035,0.0623-0.0079,0.0911-0.0079 C264.4167,1.3805,264.4398,1.3389,264.463,1.2974z M345.7836,0.4842l-0.2208,0.0898l0.2197,0.0976L345.7836,0.4842z M82.5272,1.1319 c-0.0171,0.1442-0.0334,0.2886-0.0498,0.4329c0.049-0.068,0.129-0.1322,0.1378-0.2051C82.6239,1.2884,82.5601,1.2083,82.5272,1.1319 z M106.3812,1.1568c-0.0199-0.0513-0.0399-0.1026-0.0599-0.1539c-0.0696,0.0179-0.139,0.0359-0.2085,0.0539 c0.0201,0.0511,0.0376,0.1439,0.061,0.1455C106.2417,1.2068,106.312,1.1746,106.3812,1.1568z M187.6174,1.1345 c-0.0505-0.0401-0.0977-0.1054-0.153-0.1134c-0.0597-0.0087-0.1272,0.0363-0.1913,0.0579c0.0508,0.0398,0.1017,0.0797,0.1525,0.1195 C187.4896,1.1771,187.5535,1.1558,187.6174,1.1345z M257.8704,1.0262l-0.2361,0.0505l0.2013,0.1122L257.8704,1.0262z M292.6028,1.2844c-0.0022-0.0292-0.1028-0.0515-0.1587-0.0768c-0.0212,0.0732-0.0608,0.1479-0.0549,0.2188 c0.0027,0.0299,0.1011,0.0518,0.156,0.0774C292.5674,1.4304,292.6079,1.3557,292.6028,1.2844z M410.3582,1.3198 c-0.0007-0.0254-0.0884-0.0482-0.1365-0.0721c-0.0208,0.066-0.0566,0.1325-0.0548,0.1979c0.0007,0.025,0.0878,0.0475,0.1356,0.0712 C410.3235,1.451,410.3601,1.3849,410.3582,1.3198z M412.0284,1.2965c-0.0001-0.0262-0.1049-0.0516-0.1617-0.0774 c-0.0251,0.0767-0.0669,0.1535-0.0662,0.23c0.0002,0.0266,0.1055,0.0522,0.1628,0.0783 C411.988,1.4504,412.0291,1.3733,412.0284,1.2965z M212.5977,1.4309c0.017-0.0749,0.0339-0.1498,0.051-0.2248 c-0.0339,0.0584-0.0679,0.1168-0.1018,0.1752c-0.3652-0.0032-0.7306-0.0063-1.0958-0.0095 c-0.0306,0.0096-0.061,0.0202-0.0917,0.0299c0.0137,0.0088,0.0276,0.0211,0.0413,0.0294 C211.7996,1.431,212.1986,1.431,212.5977,1.4309z M85.0835,0.8013c-0.0483,0.0128-0.0968,0.0256-0.1453,0.0385 c-0.0291,0.0151-0.0581,0.0303-0.087,0.0455c0.0336-0.0075,0.066-0.018,0.0992-0.0263C84.9949,0.8397,85.0392,0.8204,85.0835,0.8013 z M319.6306,0.7727c-0.057,0.0222-0.114,0.0444-0.171,0.0666c-0.0101,0.0057-0.0201,0.0118-0.0304,0.0175 c0.009-0.0008,0.0179-0.0015,0.0269-0.0023C319.5143,0.8271,319.5725,0.7999,319.6306,0.7727z M383.8815,0.7495l-0.1074,0.0908 c-0.0121,0.0041-0.024,0.0089-0.036,0.013c0.0208,0.0051,0.0416,0.0121,0.0624,0.0168L383.8815,0.7495z M181.4781,1.192 c-0.0605,0.0647-0.1211,0.1294-0.1818,0.1941c0.0603-0.0043,0.1204-0.0085,0.1805-0.0128 C181.4773,1.3129,181.4778,1.2524,181.4781,1.192z M194.6465,1.3035l-0.1125,0.0909c-0.0063,0.006-0.0125,0.0141-0.0188,0.0206 c0.0162,0.0054,0.0325,0.0114,0.0486,0.0159L194.6465,1.3035z M235.5266,1.402c0.0474-0.0115,0.0947-0.0225,0.1421-0.0341 c-0.0618-0.0068-0.1235-0.0156-0.1854-0.0217c-0.1871-0.001-0.3741-0.0019-0.5612-0.0029 c-0.0188,0.0064-0.0374,0.0135-0.0562,0.0196c0.0066,0.0087,0.0125,0.0195,0.019,0.0279 C235.0989,1.3945,235.3127,1.3982,235.5266,1.402z M267.1785,1.9513c0.0095-0.0237,0.0165-0.0535,0.0251-0.079 c-0.0254,0.0076-0.0508,0.0149-0.0759,0.0226c-0.184,0.1785-0.3679,0.3569-0.5518,0.5355l-0.0869,0.1254l0.116-0.0975 C266.7961,2.2892,266.9873,2.1202,267.1785,1.9513z M157.2083,40.441l0.1294-0.2043l-0.2479-0.0073L157.2083,40.441z" fill="#4997ca"/></g></svg>