<?xml version="1.0" encoding="UTF-8" standalone="no"?><svg xmlns="http://www.w3.org/2000/svg" xmlns:xlink="http://www.w3.org/1999/xlink" fill="#ffffff" height="100" version="1" viewBox="0 0 100 100" width="100"><g><path d="M457 822 c-15 -15 -45 -69 -67 -120 -21 -50 -49 -111 -61 -134 -20 -40 -22 -41 -35 -23 -19 25 -41 12 -71 -41 -26 -46 -123 -304 -123 -328 0 -41 102 -4 238 87 61 41 92 83 92 125 0 32 27 52 70 52 46 0 70 -21 70 -61 0 -68 65 -135 194 -200 79 -39 142 -51 151 -26 6 16 -140 376 -161 397 -14 14 -17 13 -34 -7 -36 -45 -49 -27 -98 132 -34 110 -77 175 -116 175 -12 0 -34 -13 -49 -28z m73 -132 c29 -57 25 -91 -8 -58 -9 9 -18 9 -38 -1 -15 -6 -28 -10 -31 -8 -7 8 42 107 53 107 2 0 13 -18 24 -40z" transform="matrix(.1 0 0 -.1 0 100)"/></g></svg>