<?xml version="1.0" encoding="UTF-8" standalone="no"?><svg xmlns="http://www.w3.org/2000/svg" xmlns:xlink="http://www.w3.org/1999/xlink" fill="#000000" height="94.1" preserveAspectRatio="xMidYMid meet" version="1" viewBox="-0.7 -0.4 500.8 94.1" width="500.8" zoomAndPan="magnify"><g id="change1_1"><path d="M20.2,86.2c-3.4-1.5-6.6-2.9-9.9-4.3c-4.6-3.9-7.3-8.9-8-15.1c-0.2-1.4-0.5-2.9-0.9-4.3 c-2-9.1-2.1-17.9,1.3-26.8c2.6-6.9,5.5-13.5,9.7-19.6c2.7-3.8,4.9-7.9,8.5-11.8c0.9-0.2,2.4-0.4,3.7-0.9c6.4-2.7,13.1-3.1,19.9-3.1 c17.3,0,34.7-0.1,52-0.2c7.1,0,14.1,0.2,21.2,0.3c2.4,0,4.7,0.1,7.1,0c17.9-0.8,35.8-0.1,53.8,0.1c8.5,0.1,17,0.3,25.5,1.4 c2.6,0.3,5.3,0.1,7.9,0.3c44,2.4,88.1,1.8,132.2,1.7c2.9,0,5.9-0.1,8.8,0c2.3,0.1,4.7,0.2,7,0.8c3.2,0.9,6.4,1,9.6,0.9 c9.7-0.1,19.4-0.3,29.1-0.3c10.9,0,21.7,0.1,32.6,0.2c0.9,0,1.7,0.3,2.8,0.5c-0.5,0.4-0.8,0.8-1.1,0.8c-5,0.1-9.9,1.3-14.9,0.9 c-6.9,1.3-14,1.4-21.1,1.7c0.3,0.9,0.4,1.6,0.7,1.9c0.4,0.4,1,0.6,1.6,0.6c7.6,0,15.2,0.1,22.9,0c5.3,0,10.5,0.7,15.9,0.9 c-1.6,2.2-4.2,1-5.7,2.5c0.2,1.4,1.1,2.2,2.3,2.3c2.6,0.4,5.2,0.5,7.7,0.7c0.4,0.6,0.7,1.1,1,1.6c-0.4,0.3-0.7,0.9-1.2,0.9 c-2,0.2-4.1,0.2-6.1,0.5c-0.8,0.1-1.6,0.5-2.5,0.8c0.3,0.6,0.4,1.4,0.7,1.5c1.1,0.4,2.3,0.6,3.4,0.6c4.1,0,8.2,0,12.6,1.3 c-4.4,1.4-8.8,0.4-13,1.6c-0.8,0.6-1.7,1.4-2.7,2.1c-1.7,0.4-3.4,0.8-5.4,1.3c0.5,0.4,0.8,0.7,1.1,0.7c5.6,0.2,11.2,0.3,16.7,0.4 c3.8,0.1,7.6,0.1,11.5,0.2c1,0.7,2,1.3,2.8,1.8c4.5,0.7,8.8,1.4,13.1,2.1c0.2,0,0.4,0.4,0.7,0.8c-2.8,1.4-5.8,0.6-8.7,1.1 c-3.2,0.5-6.4,0.8-9.6,1.1c-2.9,0.3-5.8,0.7-8.7,1c0.1,0.8,0.1,1.4,0.3,1.7c0.4,0.4,1,0.6,1.6,0.6c4.4,0.1,8.7,1,13,2.1 c3.9,1,8.1,1,12,2.2c0.2,0.1,0.4,0.4,0.6,0.6c-0.4,1.2-1.3,1.9-2.5,2.2c-1.7,0.4-3.5,0.6-5.2,0.7c-5.1,0.2-10.3,0.4-17.3,0.7 c4.2,0.5,6.6,0.5,8.8,1.2c2.3,0.7,4.6,1,6.9,1.4c2,0.3,4,1,6,1.3c2,0.3,4.1,0.3,6.2,0.4c3.1,0.8,5.9,2.5,9.3,2.5 c2.9,0,5.9,0.1,9.1,1.2c0.8,0.6,2,1.5,3.2,2.4c-0.5,0.6-0.8,1.2-1.2,1.3c-1.7,0.5-3.4,0.9-5.1,1.2c-3.2,0.6-6.4,0.9-9.5,1.9 c-5.4,1.8-10.9,2.1-16.5,2c-2.6,0-5.2,0.5-7.8,1c-6.6,1.3-13.2,2.9-20,2.8c-3.5-0.1-7,0.2-10.7,0.4c0.3,0.6,0.4,1.2,0.7,1.4 c1.1,0.4,2.2,1,3.3,1c2,0,4.1-0.3,6.4-0.5c1.8,0.1,3.6,1.1,5.8,1.4c-1.6,2-3.6,1.4-5.1,2c-1.9,0.7-4,1-6,1.3 c-1.7,0.3-3.5,0.3-5.2,0.4c-0.6,0.8-1.1,1.5-1.9,2.6c-1.1,0.1-2.5,0.4-3.9,0.5c-14.7,0.7-29.3,1.3-44,2.1c-7,0.4-14,1.1-21.2,1.6 c-0.4,0.8-0.7,1.5-1.1,2.4c4,2.2,8.4,0.1,12.2,1.8c-0.2,0.5-0.4,1-0.7,1.8c-1,0.1-2.1,0.4-3.2,0.5c-9.1,0.2-18.2,0.4-27.3,0.7 c-14.1,0.3-28.2,0.8-42.3,1c-12.3,0.2-24.7,0-37,0c-2.6,0-5.3-0.3-7.9-0.4c-5.3-0.2-10.6-0.3-15.9-0.4c-3.8,0-7.6,0.2-11.5,0.1 c-20-0.3-40-0.8-59.9-1.1c-25.3-0.4-50.5-0.7-75.8-1.1c-10.3-0.2-20.6-0.1-30.8-1.3c-3.2-0.4-6.5-0.3-9.7-0.4 C38.1,88.3,29,87.7,20.2,86.2" fill="#8542dd"/></g></svg>